<?xml version="1.0" encoding="UTF-8"?><svg id="Capa_2" xmlns="http://www.w3.org/2000/svg" viewBox="0 0 1960.17 2328.76"><g id="Capa_1-2"><g><path d="M.11,1336.1c.4-41.92,3.39-84.03,.44-125.71-2.74-38.77,10.69-66.08,43.47-84.29,23.62-13.12,29.81-31.75,29.75-58.46-.25-111.62-5.16-223.27,15.91-334.31C157.12,377.92,446.03,86.13,801.67,17.2c467.66-90.65,917.08,184.77,1050.33,643.61,27.24,93.79,36.27,189.7,34.68,287.01-.74,44.94,.46,89.91-.52,134.84-.34,15.58,3.16,26.69,17.43,34.31,44.72,23.88,61.17,60.57,55.51,111.44-3.94,35.44-.03,71.76,.37,107.69-.24,16.93-2.57,34.15-.3,50.73,5.63,41.05-13.02,66.94-45.38,89.39-45.73,31.71-92.54,61.43-141.63,87.37-16.03,8.47-23.31,17.75-22.61,36.55,1.15,30.86-9.43,58.58-29.94,82.12-21.07,24.18-48.36,32.4-78.2,24.67-31.87-8.26-55.59-28.29-65.17-61.56-12.32-42.77-4.3-86.59-6.03-129.9-1.35-33.82-.81-67.72-1.1-101.58,.42-123.89,.95-247.79,1.15-371.68,.04-26.47,4.68-51.65,17.43-74.96,32.47-59.34,103.96-63.02,141.26-7.03,6.85,10.29,11.48,22.06,18.94,36.66,13.51-332.4-103.11-597.8-395.5-759.12-291.23-160.68-581.8-135.87-846.29,66.77-223.73,171.4-309.95,409.17-294.32,694.56,6.15-14.24,8.56-21.95,12.56-28.71,17.09-28.86,38.74-50.27,75.84-49.26,36.5,.99,58.73,21.24,74.27,51.55,11.66,22.76,14.62,47.45,14.76,72.63,.47,82.91,.92,165.83,1.37,248.74-.35,95.78-.5,191.56-1.27,287.34-.13,15.83-1.63,31.92-4.8,47.42-10.11,49.45-43.99,80.24-86.37,80-41.51-.23-84.98-35.53-84.88-84.05,.1-45.67-23.42-61.25-56.71-77.95-43.64-21.89-83.04-51-122.62-79.61-23.81-17.21-36.42-37.78-33.52-68.28,1.97-20.73-.06-41.85-.3-62.79Z"/><path d="M980.22,2328.63c-238.26,0-476.52,.1-714.78-.1-42.23-.03-74.23-23.29-83.51-59.12-9.14-35.27,5.04-71.81,35.6-91.39,16.57-10.62,35.16-13.42,54.35-13.43,470.54-.02,941.08-.14,1411.62,.13,56.83,.03,93.31,30.2,95.97,76.71,2.88,50.43-31.72,86.74-84.46,87.07-80.75,.51-161.5,.13-242.25,.13-157.51,0-315.02,0-472.53,0Z"/><path d="M1514.4,1381.02c.02-182.86,.19-365.72,.26-548.57,.03-79.82-41.57-121.11-121.91-121.17-32.91-.03-65.83-.41-98.73,.1-60.38,.94-105.33,45.5-106.74,106.13-.74,31.96,0,63.95-.09,95.92-.38,136.85-.83,273.7-1.25,410.55,.29,11.96,.83,23.93,.85,35.89,.19,216.61,.3,433.23,.48,649.84,.07,75.44,42.11,119.01,117.37,121.03,28.87,.77,57.78,.38,86.67,.09,79.81-.8,123.12-44.56,123.28-124.06,.38-197.63,.8-395.27,1.21-592.9-.48-10.95-1.39-21.9-1.39-32.84Zm-60.85-357.01c-8.69,.06-17.37,.09-26.06,.11-26.06,.06-52.12-.01-78.18-.01-25.32,0-50.63,.07-75.95,.02-8.44-.02-16.88-.05-25.32-.1-8.49-.05-18.93,2.19-18.82-12.1,.11-14.27,10.61-11.89,19.03-11.91,68.5-.16,137.01-.15,205.51,0,8.5,.02,18.93-2.14,18.82,12.12-.1,14.27-10.62,11.84-19.04,11.89Z"/><path d="M772.15,1404.98c.03-188.84,.18-377.68,.28-566.52,.05-87.68-39.75-127.19-128.06-127.2-31.91,0-63.83-.53-95.73,.16-47.77,1.04-85.34,30.8-99.13,76.68-4.11,13.66-4.64,27.4-4.67,41.43-.31,154.82-.75,309.65-1.17,464.47,.29,10.96,.82,21.93,.83,32.89,.2,228.55,.3,457.09,.53,685.64,.07,70.42,40.71,114.12,111.1,117.93,30.79,1.67,61.74,.62,92.62,.34,80.65-.73,123.42-43.85,123.58-124.17,.39-189.61,.8-379.22,1.19-568.83-.48-10.95-1.39-21.89-1.38-32.84Zm-41.78-391.94c-.93,14.35-11.82,10.84-19.92,10.92-34.75,.34-69.5,.14-104.26,.14-33.76,0-67.52,.03-101.28-.04-8.99-.02-18.66,.95-17.95-13.09,.61-12.07,9.21-11,17.02-11.01,69.51-.08,139.01-.07,208.52-.03,9,0,18.79-.97,17.88,13.1Z"/><path d="M1143.34,1291.14c0-153.87,.19-307.75,.19-461.62,0-75.63-42.85-118.1-118.91-118.23-29.92-.05-59.83-.05-89.75,0-76.27,.14-118.81,42.39-118.82,118.17-.01,95.92,.3,191.84,.11,287.77-.2,106.87-.8,213.74-1.23,320.61,.28,11.96,.8,23.92,.82,35.89,.17,178.64,.24,357.29,.4,535.93,.07,75.52,41.94,119.01,117.2,121.09,27.87,.77,55.78,.26,83.67,.12,84.44-.43,126.3-42.67,126.45-127.28,.41-226.53,.86-453.07,1.3-679.6-.5-10.95-1.42-21.89-1.42-32.84Zm-59.34-267.02c-17.87-.02-35.74-.02-53.61-.02s-35.74,0-53.61,0c-16.88,0-33.75,.02-50.63,.03s-33.75-.02-50.63-.1c-7.61-.04-16.58,1.63-17.43-10.54-.95-13.65,8.11-13.57,17.48-13.57,69.49,.02,138.98-.04,208.47,.09,7.61,.01,16.58-1.62,17.43,10.54,.95,13.65-8.11,13.58-17.48,13.57Z"/></g></g></svg>