<?xml version="1.0" encoding="UTF-8"?><svg id="Capa_2" xmlns="http://www.w3.org/2000/svg" viewBox="0 0 417.88 291.41"><g id="Capa_1-2"><path d="M412.93,58.06c-2.71-26.2-27.36-50.82-53.36-52C309.34,3.8,259.08,1.99,208.84,0c-.01,.48-.03,.96-.04,1.44-8.49,0-17-.25-25.48,.04-41.6,1.41-83.2,2.85-124.79,4.52C33.84,6.99,8.39,30.21,5.15,54.56c-1.34,10.06-2.22,20.2-3,30.33C-1.56,133.17-.12,181.35,3.86,229.6c2.88,34.89,31.87,55.88,55.61,57.2,56.55,3.15,113.13,5.56,169.77,4.23,42.61-1,85.22-2.61,127.81-4.3,26.98-1.07,51.9-22.38,55.12-49.25,3.22-26.9,4.6-54.08,5.47-81.18,1.05-32.82-1.33-65.58-4.7-98.25Zm-110.66,202.68c-.99,.11-2,.05-3,.05-60.32,0-120.63-.02-180.95,.04-4.88,0-8.95-1.17-11.18-5.86-3.16-6.62,1.38-13.94,8.89-14.13,7.83-.19,15.66-.05,23.49-.05,23.16,0,46.32,0,69.48,0,30.33,0,60.65-.01,90.98,.01,6.67,0,10.66,3.2,11.24,8.81,.59,5.79-3.16,10.49-8.94,11.13Zm48.15-39.84c-1.48,.15-3,.05-4.49,.05-45.64,0-91.28,0-136.93,0-46.48,0-92.95,0-139.43,0-7.22,0-11.59-3.88-11.59-10.13,0-5.39,3.76-9.51,9.14-9.98,1.16-.1,2.33-.05,3.5-.05,92.12,0,184.24,.02,276.35-.05,5.02,0,9.36,.85,11.69,5.79,3.03,6.42-1.14,13.63-8.25,14.37Z"/></g></svg>