<?xml version="1.0" encoding="utf-8"?>
<!-- Generator: Adobe Illustrator 27.3.1, SVG Export Plug-In . SVG Version: 6.00 Build 0)  -->
<svg version="1.1" id="Capa_2_00000147900883146905483810000011232896860576622010_"
	 xmlns="http://www.w3.org/2000/svg" xmlns:xlink="http://www.w3.org/1999/xlink" x="0px" y="0px" viewBox="0 0 512 512"
	 style="enable-background:new 0 0 512 512;" xml:space="preserve">
<g id="Capa_1-2">
	<path d="M72.6,83.7c-52.6,5.9-69.1,49.4-69,96.5c2,73.2-30.9,237.4,70.1,247.1c131.4,7.8,240.4,5.6,364.1-0.1
		c33-1.3,63.5-27.4,67.4-60.2c8.3-72.8,9.4-146.6,1-219.5l0,0c-3.4-32.1-33.5-62.2-65.3-63.6C349,78.4,164.4,78.4,72.6,83.7z
		 M370.7,395.4c-75,0.2-150,0-225,0.1c-6,0-10.9-1.4-13.7-7.2c-7.6-23.9,26.1-16.2,39.6-17.4c65.4,0,130.9,0,196.3,0
		C385,369.8,386.5,393.6,370.7,395.4z M429.7,346.6c-114.5,0.2-229.1,0-343.6,0.1c-8.8,0-14.2-4.8-14.2-12.4
		c0-6.6,4.6-11.6,11.2-12.2c114.1-0.2,228.3,0,342.3-0.1C442.7,319.8,447.4,343.7,429.7,346.6L429.7,346.6z"/>
</g>
</svg>
