<?xml version="1.0" encoding="UTF-8"?>
<svg id="Capa_1" data-name="Capa 1" xmlns="http://www.w3.org/2000/svg" viewBox="0 0 64 64">
  <defs>
    <style>
      .cls-1 {
        fill: rgba(45, 45, 45, .24);
      }
    </style>
  </defs>
  <path d="m32,0C14.33,0,0,14.33,0,32s14.33,32,32,32,32-14.33,32-32S49.67,0,32,0Zm-5.25,42.3h-7.75v-9.3h7.75v9.3Zm0-10.85h-7.75v-9.3h7.75v9.3Zm9.3,10.85h-7.75v-9.3h7.75v9.3Zm0-10.85h-7.75v-9.3h7.75v9.3Zm9.3,10.85h-7.75v-9.3h7.75v9.3Zm0-10.85h-7.75v-9.3h7.75v9.3Z"/>
  <path class="cls-1" d="m63.6,37.8l-18.25-13.34v6.99h-3.35v1.55h3.35v9.3h-7.75v-2.7h-1.55v2.7h-7.75v-2.7h-1.55v2.7h-5.63l22.48,19.5c10-4.4,13-9.4,13-9.4-.8.4,4-2.6,7-14.6Z"/>
</svg>