<?xml version="1.0" encoding="utf-8"?>
<!-- Generator: Adobe Illustrator 27.3.1, SVG Export Plug-In . SVG Version: 6.00 Build 0)  -->
<svg version="1.1" id="Layer_1" xmlns="http://www.w3.org/2000/svg" xmlns:xlink="http://www.w3.org/1999/xlink" x="0px" y="0px"
	 viewBox="0 0 215.8 259" style="enable-background:new 0 0 215.8 259;" xml:space="preserve">
<path d="M212.6,3.2C210.5,1.1,207.9,0,205,0H10.8C7.9,0,5.3,1.1,3.2,3.2S0,7.9,0,10.8v129.5c0,9.7,1.9,19.2,5.6,28.7
	c3.8,9.5,8.4,17.9,14,25.3c5.6,7.4,12.2,14.5,19.9,21.5s14.8,12.8,21.3,17.4c6.5,4.6,13.3,9,20.4,13.1s12.1,6.9,15.1,8.3
	c3,1.5,5.4,2.6,7.2,3.4c1.3,0.7,2.8,1,4.4,1s3-0.3,4.4-1c1.8-0.8,4.2-1.9,7.2-3.4c3-1.5,8-4.2,15.1-8.3s13.9-8.5,20.4-13.1
	s13.6-10.4,21.3-17.4c7.7-7,14.3-14.1,19.9-21.5s10.2-15.8,14-25.3s5.6-19.1,5.6-28.7V10.8C215.8,7.9,214.7,5.4,212.6,3.2z
	 M187.6,141.5c0,46.9-79.6,87.2-79.6,87.2v-201h79.6C187.6,27.8,187.6,94.6,187.6,141.5z"/>
</svg>
