<?xml version="1.0" encoding="utf-8"?>
<!-- Generator: Adobe Illustrator 26.3.1, SVG Export Plug-In . SVG Version: 6.00 Build 0)  -->
<svg version="1.1" id="Capa_1" xmlns="http://www.w3.org/2000/svg" xmlns:xlink="http://www.w3.org/1999/xlink" x="0px" y="0px"
	 viewBox="0 0 128 128" style="enable-background:new 0 0 128 128;" xml:space="preserve">
<g>
	<path d="M80.4,64.3l-0.6,5.9c-0.5,4.6-1.4,8.9-2.7,12.8l29.1-38.7H78.7C80.5,50.5,81.1,57.1,80.4,64.3z"/>
	<path d="M63.3,38C59,31.6,52.2,27.9,43.1,26.8l-14.3-1.5l-7.5,73l12.9,1.3c9.5,1,17.1-1.2,23-6.6c5.9-5.3,9.4-13.4,10.5-24.3
		l0.6-5.4C69.3,52.8,67.7,44.3,63.3,38z"/>
	<path d="M122,0H6C2.7,0,0,2.7,0,6v116c0,3.3,2.7,6,6,6h116c3.3,0,6-2.7,6-6V6C128,2.7,125.3,0,122,0z M123,104.1H67.8v-5.5
		c-3.3,3.4-7.1,6.1-11.6,8c-6.6,2.9-14.1,4-22.5,3.2L8,107.1L17.6,14l26.3,2.7c8.1,0.8,15.1,3.4,20.9,7.6c3.9,2.8,7.1,6.2,9.6,10.3
		h46.7V43L82.3,94.4H123V104.1z"/>
</g>
</svg>
