<?xml version="1.0" encoding="UTF-8"?><svg id="Capa_2" xmlns="http://www.w3.org/2000/svg" viewBox="0 0 199.99 200.15"><g id="Capa_1-2"><path d="M99.93,126.1c-13.72,.01-25.83-11.98-25.98-25.73-.16-13.97,11.94-26.18,25.95-26.19,14,0,26.14,12.21,25.99,26.16-.14,13.75-12.24,25.75-25.96,25.76Z"/><path d="M180.95,101.43c.25,17.6-5.42,33.56-15.98,47.28-15.4,20-35.89,31.55-61.67,32.3-2.64,.08-3.48,1.04-3.42,3.56,.12,5.16,.03,10.32,.03,15.47,3.33,0,7.27,.24,9.99,0,6.51-.57,13.76-2.78,20.57-4.75,11.47-3.33,21.24-9.47,30.81-16.16,10.57-7.39,18.11-17.55,24.9-28.25,6.13-9.66,12.07-23,13.64-39.76,.3-3.22,.07-6.46,.01-9.69h-18.9Z"/><path d="M0,100.13s9.33-.23,13.97,.07c3.85,.25,5.09-.91,5.13-4.95,.17-16.33,5.95-31.09,15.75-43.71,16.02-20.62,37.12-32.14,63.57-32.41V.04c-8.76-.56-29.05,4.91-29.05,4.91-11.92,3.57-22.29,9.69-32.07,17.02-9.84,7.38-17.5,16.83-23.65,27.35C7.04,60.63,2.41,72.79,1.03,85.97"/><path d="M148.17,101.43c-.27,5.52-1.32,10.84-3.16,16.2-5.08,14.84-22.62,30.19-41.07,30.48-2.92,.05-4.27,.8-4.08,3.95,.22,3.64,.25,7.32,0,10.96-.24,3.45,1.27,4.22,4.39,4.1,6.36-.25,12.28-1.98,18.31-3.95,25.7-8.39,44.81-35.46,44.25-61.74h-18.64Z"/><path d="M98.42,33.25c-3.11-.08-6.22-.25-9.3,.4-15.84,3.31-29.49,10.34-40.16,22.86-8.87,10.41-13.97,22.39-15.86,35.77-1.08,7.64-.69,7.85,6.88,7.85,2.66,0,5.33-.16,7.97,.04,3.11,.24,4.04-1.06,3.98-4.04-.19-9.01,3.43-16.83,8.53-23.89,9.39-12.98,22.05-19.94,37.96-20.37v-18.63Z"/><path d="M166.8,98.59c.71-34.66-31.04-66.26-65.54-65.34v18.59c24.72,.09,46.62,21.5,46.97,46.75h18.58Z"/><path d="M101.26,19.13c17.35-.04,33.21,5.27,46.84,15.67,20.92,15.96,32.28,37.28,32.81,63.8h18.9c-.38-12.41-5.13-30.29-5.13-30.29-6.24-17.81-16.35-32.68-30.79-44.88-11.87-10.02-21.92-15.67-40.14-20.7C116.84,.81,105.18,.35,101.26,.24V19.13Z"/></g></svg>