<?xml version="1.0" encoding="UTF-8"?>
<svg id="a" data-name="Layer 2" xmlns="http://www.w3.org/2000/svg" viewBox="0 0 328.57 305.98">
  <path d="m325.9,228.12c-6.58-4.61-30.58-21.31-47.61-31.6-8.98,11.75-11.41,13.78-12.5,14.22-.79.32-2.43.97-19.39-5.5-15.09,19.15-36.73,48.65-42.9,57.09l122.41-34.2Z"/>
  <path d="m327.81,227.02c.06-.18.11-.37.17-.61,1.39-5.91.33-23.62-2.83-47.37-.81-6.1-1.66-11.82-2.49-16.92.33-.11.64-.24.95-.38-.06-.34-.11-.69-.17-1.02.77-.39,1.48-.88,2.09-1.5,1.69-1.72,2.45-4.39,1.62-6.65-.86-2.34-3.21-3.88-5.64-4.44-.12-.03-.25-.05-.37-.08-.07-.37-.15-.72-.22-1.07-.34-.06-.69-.12-1.06-.17-.58-2.75-1.1-4.83-1.51-6.15-5.47,7.93-25.03,36.12-38.83,54.26,17.82,10.79,43.09,28.44,48.3,32.1Z"/>
  <path d="m245.67,152.08c-41.74,9.32-68.67,16.77-70.92,18.67-.09.32-.09.93-.02,1.78,2.08.94,4.24,1.91,6.47,2.91-1.34.25-2.68.38-4.01.28-.11,0-.22-.03-.34-.04-.66-.3-1.28-.58-1.84-.83.02.15.04.29.07.45-.73-.23-1.44-.56-2.09-.96-.03-.26-.06-.5-.08-.74-.07-.17-.08-.35-.05-.54-.14-1.65-.12-2.79.12-3.26,1.56-3.13,43.08-12.99,60.86-17.08,15.56-3.59,34.33-7.67,50.3-10.75-.15,0-.29-.01-.42-.03-.15-.03-.2-.04-.22-.05-.12-.14-.26-.56-.32-1.79-.13-3.06-.07-6.12.13-9.16,1.5-.26,3.07-.61,4.65-1.04.03,1.38.06,2.75.1,4,.07,2.13.08,5.69.08,7.25-.07.02-.14.04-.21.06-.14.04-.29.08-.45.13.82-.15,1.62-.3,2.42-.45,0-.03,0-.05,0-.08.23-3.82.16-7.71.07-11.5,1.38-.44,2.75-.94,4.09-1.51.22,2.94-.08,6.02-.37,8.84-.08.77-.17,1.64-.46,2.24-.46.93-1.16,1.45-1.88,1.75.73-.13,1.46-.27,2.17-.39.22-.27.43-.56.6-.91.36-.74.47-1.68.56-2.58.32-3.1.61-6.31.34-9.37,5.89-2.7,10.88-6.75,12.05-12.32.66-3.12-.24-6.6-2.41-9.3-1.26-1.58-2.74-2.78-4.34-3.67,2.07-2.36,3.56-5.29,4.38-8.33,1.37-5.07,1.14-10.44.5-15.65-.04-.32-.09-.63-.13-.95,1.01-.01,2.07-.2,2.76-.92.63-.66.82-1.62.9-2.53.21-2.32-.09-4.68-.86-6.87-.4-1.14-.94-2.25-1.76-3.14-1.27-1.36-3.14-1.9-4.82-1.4-2.76-6.87-6.98-12.93-13.25-16.73-4.77-2.89-10.91-4-16.14-2.5-10.69-15.36-25.92-27.3-44.02-33.15-19.58-6.33-42.84-8.44-65.4-5.58l-5.88-1.78c-4.57-1.38-9.25-2.77-14.01-2.5-2.84.16-6.06,1.3-6.94,4.01-.49,1.5-1.15,4.9-1.34,6.72-6.23,2.14-12.24,4.72-17.92,7.8-8.17,4.43-15.65,9.87-22.1,16.36-4.88-4.06-10.55-6.92-16.73-8.23-2.24-.47-4.73-.71-6.9.69-1.82,1.17-3.08,3.28-4.15,5.34-1.57,3.01-3.03,6.21-4.14,9.43-.4,1.18-.57,2.55,0,3.47.35.56.92.87,1.48,1.15,5.32,2.74,10.85,4.93,16.48,6.89-.89,1.64-1.74,3.32-2.52,5.05-10.33,22.85-7.01,45.26-1.44,68.7,2.01,8.46,4.34,17.05,3.64,25.72-1.77,21.88-19.74,35.02-33.58,50.54-1.54-.55-2.91-2.06-3.94-3.45-2.45-3.28-4.89-6.56-7.34-9.85-.56-.75-1.16-1.53-2.04-1.84-2.01-.7-3.81,1.4-4.91,3.22-.83,1.38-1.66,2.76-2.5,4.13-.6.99-1.22,2.05-1.21,3.2,0,1.73,1.35,3.12,2.64,4.27,3.8,3.4,7.89,6.47,12.17,9.23-1.85,2.67-3.51,5.45-4.88,8.39-5.77,12.42-6.34,27.16-1.55,39.98.61,1.64,1.32,3.22,2.09,4.75-2.38,2.07-5.09,3.81-8.43,4.65-4.62,1.15-9.98.24-13.58-2.31-1.42-1-2.56-2.23-4.02-3.19-1.46-.96-3.4-1.66-5.25-1.31-2.72.51-4.09,3.1-3.6,5.26,2,8.83,17.04,15.58,27.5,15.53,5.99-.03,12.43-2.09,16.78-5.57,9.53,9.73,22.59,16.16,35.72,19.54,41.25,10.62,91.62,13.1,128.42-11.52,5.12-3.43,9.62-7.19,13.72-11.23,3.62.08,6.97.27,8.58.67,1.98.49,3.86,1.32,4.45,3.55.33,1.26.35,2.9.17,4.2-.43,3.05-.52,6.16-.28,9.24.15,1.93.54,4.05,1.89,5.2,1.34,1.15,3.3.96,4.74-.04,1.43-1,2.43-2.66,3.23-4.35,3.83-8.13,4.49-24.23-1.06-29.01-2.01-1.73-5.71-3-9.66-3.56,1.08-1.48,2.14-2.99,3.18-4.52-17.25,4.76-31.34,8.22-35.74,8.22-.27,0-.49-.02-.69-.04l-2.56.71,1.1-1.51c-.96-.94-2.29-3.03-4.28-7.84-6.07-14.66-15.3-47.62-19.83-68.47.67.04,1.33.07,1.99.07.04,0,.08,0,.12,0,4.89,21.95,14.84,58.17,21.11,71.09.99,2.04,1.67,3.03,2.09,3.51,3.98-5.45,27.43-37.55,43.67-58.18-15.2-5.83-35.46-14.56-50.87-21.35.59-.47,1.13-.97,1.59-1.5,19.21,8.43,40.23,17.32,54.2,22.59,11.21,4.2,14.47,4.72,15.4,4.7.1,0,.21-.01.28-.04.04-.02.09-.04.14-.07.77-.45,3.37-2.81,12.06-14.22l.54-.71h0c11.13-14.68,27.12-37.29,39.15-54.73-5.14-.35-28.47,3.37-71.28,12.93Zm43.29-22.48s.02,0,.03,0c.03,1.4.06,2.81.07,4.21-.04-1.32-.07-2.76-.1-4.2Zm-1.41-83.22c11.39,6.89,15.37,21.1,16.69,31.8.53,4.33.96,9.97-.47,15.27-.85,3.14-2.38,5.96-4.34,8.13-.25-.12-.5-.23-.76-.33,0-.06,0-.13,0-.19-.25-3.51-1.85-6.33-4.63-8.16-1.08-.71-2.31-1.24-3.66-1.56-1.34-11.42-4.1-22.12-8.2-31.8-2.35-5.55-5.24-10.88-8.6-15.87,4.49-.86,9.72.14,13.98,2.72Zm9.14,55.53s0,.03,0,.05c0,.23-.01.47-.03.71-.23,2.77-1.66,5.75-4.62,6.87-2.42.91-5.36.77-8.73-.43-1.8-.64-3.99-1.72-5.38-3.46-.22-.28-.43-.57-.61-.89-.18-.32-.34-.65-.46-1-.62-1.77-.37-3.89.67-5.69.94-1.63,2.49-2.99,4.46-3.93,1.68-.8,3.49-1.19,5.26-1.19,2.07,0,4.07.54,5.69,1.61,2.24,1.48,3.54,3.77,3.74,6.64.02.23.02.47.02.71Zm-30.67,15.57c.63-4.09,4.33-7.91,10.99-11.37,1.54,2.01,3.96,3.23,5.95,3.94,2.02.72,3.91,1.08,5.64,1.08,1.35,0,2.61-.22,3.78-.66,3.29-1.24,4.92-4.45,5.24-7.48,2.1.78,3.98,2.06,5.51,3.97,1.79,2.25,2.55,5.1,2.01,7.64-.07.31-.15.62-.24.93-.03.11-.08.21-.11.31-.07.2-.13.39-.21.58-.04.11-.1.21-.15.32-.08.18-.16.37-.25.55-.05.1-.11.19-.17.29-.1.18-.2.36-.31.54-.06.09-.12.18-.18.27-.12.18-.23.36-.36.53-.06.08-.13.16-.19.25-.14.17-.27.35-.41.52-.06.07-.13.14-.19.21-.16.18-.31.35-.48.52-.06.06-.12.12-.18.17-.18.18-.36.36-.55.53-.05.05-.11.1-.17.15-.2.18-.4.35-.61.53-.05.04-.1.08-.15.12-.22.18-.45.35-.68.53-.04.03-.08.06-.12.09-.25.18-.49.36-.75.53-.03.02-.06.04-.1.06-.27.18-.54.35-.81.52-.02.01-.05.03-.07.04-.29.17-.58.34-.87.51-.02,0-.03.02-.05.03-.3.17-.61.34-.93.5,0,0-.01,0-.02,0-.32.17-.65.33-.98.49,0,0,0,0,0,0-.33.16-.67.31-1.01.46,0,0,0,0,0,0-1.27.56-2.58,1.06-3.9,1.49-.77.25-1.54.48-2.3.69.1-.03.19-.05.29-.07-1.51.43-2.98.77-4.37,1.04-1.35.26-2.62.45-3.75.57-.07,0-.13.01-.2.02-.35.04-.69.07-1.01.09-3.47.24-8.18-.48-11-5.28-1.37-2.34-1.9-4.6-1.57-6.74Zm-105.34-13.33c-2.66-14.28.28-30.56,9.33-42.14.42-.54.85-1.06,1.31-1.56,13.24-14.8,39.32-20.39,56.87-13.14,27.03,11.16,38.38,57.07,14,78.76-16.85,15-49.09,16.11-68.35,1.5-7.3-5.54-11.47-14.41-13.15-23.42Z"/>
  <path d="m225.16,84.01c-2-.28-4.1.09-5.89,1.27-3.17,2.08-4.69,6.22-4.71,9.88,0,1.85.37,3.76,1.4,5.29,1.18,1.75,3.14,2.87,5.2,3.36,3.44.82,8.23.69,10.48-2.49,1.05-1.48,1.4-3.33,1.55-5.13.47-5.61-1.86-11.33-8.04-12.18Zm4.39,9.11c-.14,1.03-.61,2.05-1.45,2.66-.74.54-1.74.71-2.63.49-.89-.22-1.69-.8-2.2-1.56-1.1-1.61-.93-4.41.87-5.45.91-.53,2.03-.63,3.02-.34.88.26,1.65.84,2.07,1.72.37.77.45,1.65.33,2.49Z"/>
</svg>