<?xml version="1.0" encoding="UTF-8"?>
<svg id="a" data-name="Capa 1" xmlns="http://www.w3.org/2000/svg" viewBox="0 0 500 446.52">
  <defs>
    <style>
      .b {
        fill-rule: evenodd;
      }
    </style>
  </defs>
  <path class="b" d="m351.76,237.22c-11.27.12-20.31,9.35-20.2,20.62.12,11.27,9.34,20.31,20.61,20.2.02,0,.03,0,.05,0,11.2-.07,20.23-9.21,20.16-20.41,0-.07,0-.14,0-.21-.12-11.27-9.35-20.31-20.62-20.2Z"/>
  <path class="b" d="m270.19,154.09c-.12-11.27-9.35-20.31-20.62-20.2-11.27.12-20.31,9.35-20.2,20.62.12,11.27,9.35,20.31,20.62,20.2.01,0,.02,0,.04,0,11.2-.07,20.23-9.21,20.16-20.41,0-.07,0-.14,0-.21Z"/>
  <path class="b" d="m147.24,237.22c-11.27.13-20.31,9.37-20.18,20.64s9.37,20.31,20.64,20.18c0,0,.01,0,.02,0,11.2-.07,20.23-9.21,20.16-20.41,0-.08,0-.15,0-.23-.13-11.27-9.37-20.31-20.64-20.18Z"/>
  <path class="b" d="m496.64,246.43l-52.47-54.22v-85.36c.03-5.45-4.36-9.89-9.8-9.93h-40.93c-5.45.03-9.85,4.47-9.82,9.93v23.21L260.4,4.41l-.12-.12s-.09-.09-.14-.14c-5.79-5.63-15.05-5.51-20.68.28L3.38,246.3C1.25,248.49.04,251.42,0,254.47c-.08,6.59,5.19,12,11.77,12.08h43.82v169.95s0,.06,0,.09c-.03,5.45,4.37,9.9,9.82,9.93h368.99c5.45-.04,9.83-4.48,9.8-9.93v-169.95h44c3.09,0,6.05-1.22,8.25-3.39,4.65-4.62,4.73-12.11.18-16.82Zm-144.66,62.22c-6.76,0-13.44-1.38-19.64-4.05l-63.57,64.29v77.55h-37.86v-77.54l-63.55-64.29c-6.21,2.67-12.89,4.05-19.64,4.05-27.65,0-50.15-22.25-50.46-49.89-.32-27.87,22.02-50.72,49.89-51.03,27.87-.32,50.72,22.02,51.03,49.89,0,6.84-1.35,13.62-4,19.93l36.8,37.2v-113.13c-12.67-5.13-22.72-15.18-27.85-27.85-10.45-25.84,2.02-55.26,27.85-65.71,25.84-10.45,55.26,2.02,65.71,27.85,10.45,25.84-2.02,55.26-27.85,65.71v113.13l36.8-37.2c-2.65-6.31-4.01-13.09-4-19.93,0,0,0-.01,0-.02-.15-28.02,22.45-50.85,50.47-51l-.12-.02c27.44.51,49.56,22.63,50.07,50.07.53,28.18-21.89,51.45-50.07,51.98Z"/>
</svg>