<?xml version="1.0" encoding="utf-8"?>
<!-- Generator: Adobe Illustrator 27.3.1, SVG Export Plug-In . SVG Version: 6.00 Build 0)  -->
<svg version="1.1" id="Capa_1" xmlns="http://www.w3.org/2000/svg" xmlns:xlink="http://www.w3.org/1999/xlink" x="0px" y="0px"
	 viewBox="0 0 423.3 437" style="enable-background:new 0 0 423.3 437;" xml:space="preserve">
<path d="M29.4,0.6C15.3,3,4.1,15.3,0.7,32.2c-0.5,2.4-1,365.8-0.5,402.9c0,3.3,0,3.3,16.8-10.8c9.2-7.7,17.8-15.1,19.2-16.2
	c1.4-1.2,7.5-6.4,13.6-11.4c6.2-5.1,11.4-9.9,11.6-10.5c0.2-0.7,0.4-20.9,0.3-44.9l-0.1-43.6h27.6c15.1,0,27.7,0.4,28,0.8
	c0.3,0.4,0.5,9.8,0.4,20.8c0,11.1,0.2,20.1,0.4,20.1c0.3,0,11.7-9.5,13.2-11c0.3-0.3,7.3-6.1,15.5-13c16.8-14,16.7-13.9,25-20.9
	c5.1-4.3,6.2-4.8,7.5-3.7c1.3,1.2,52.4,44.1,65.4,55c2.8,2.2,6.8,5.7,9.1,7.6c2.3,1.9,6.6,5.5,9.5,8c3,2.5,8.6,7.2,12.5,10.5
	c3.8,3.3,14,11.8,22.5,19c8.5,7.1,16.6,13.9,18,15.1c1.4,1.3,7,6,12.4,10.6c5.5,4.6,13.3,11.1,17.4,14.5c4.1,3.5,7.7,6.1,8,5.9
	c0.4-0.2,0.7-60.7,0.7-134.4c-0.1-119.7,0.1-134.1,1.5-134.4c0.8-0.2,16.3-0.3,34.3-0.3h32.8l-0.4-68.5c-0.1-37.7-0.6-69.5-0.9-70.6
	c-2.6-9-9.3-18.6-16.1-23.3c-8.6-5.8,3-5.5-192.4-5.5C114.4-0.1,31.6,0.2,29.4,0.6z"/>
</svg>
