<?xml version="1.0" encoding="UTF-8"?><svg id="Capa_2" xmlns="http://www.w3.org/2000/svg" viewBox="0 0 182.08 200"><g id="Capa_1-2"><path d="M182.08,200h-29.01c-.33-9.66-.24-19.35-1.09-28.96-1.73-19.56-3.93-39.08-6.01-58.61-.36-3.4-1.3-6.41-6.32-4.12v35.03c-5.5,1.28-10.53,2.33-15.51,3.63-5.62,1.47-5.81,2.01-3.83,8.15,6.23-1.3,12.5-2.6,19.48-4.06,0,7.44-.11,14.07,.05,20.69,.07,2.81-.51,4.51-3.51,5.55-3.89,1.35-7.4,3.77-11.27,5.15-9.66,3.44-19.45,6.48-29.98,5.63V14.35c5.68-2.35,12.35,.08,17.08-4.85-7.47-6.43-37.31-6.13-43.91,1,3.45,.9,6.35,1.81,9.31,2.37,3.05,.58,6.16,.81,9.08,1.17V188.22c-15.61-.11-29.41-5.16-42.8-11.64-.82-.4-1.7-1.68-1.72-2.57-.14-7.43-.08-14.87-.08-22.9,6.83,1.44,12.95,2.73,19.42,4.09v-7.27c-6.34-1.49-12.62-2.97-19.46-4.57v-35.33c-4.26-1.29-5.85-.22-6.27,3.94-1.21,11.92-3.4,23.75-4.26,35.68-1.25,17.42-1.68,34.9-2.46,52.35H0c.08-4.32-.04-8.66,.27-12.97C3.72,139.06,7.35,91.11,10.55,43.13c.31-4.59,2.05-6.95,5.6-8.74,2.95-1.48,5.93-2.95,9.02-4.12,11.41-4.31,22.88-8.49,34.95-12.95V4.56L82.03,0h17.01l22.99,4.63v12.92c12.67,4.73,24.72,8.87,36.45,13.76,6.09,2.54,12.31,4.55,12.81,13.97,1.85,34.86,4.81,69.66,7.31,104.48,1.2,16.74,2.32,33.49,3.48,50.23Z"/></g></svg>