<?xml version="1.0" encoding="UTF-8"?>
<svg id="a" data-name="svg4586" xmlns="http://www.w3.org/2000/svg" viewBox="0 0 512 512">
  <defs>
    <style>
      .b, .c {
        fill: #141414;
      }

      .c {
        opacity: .5;
      }

      .d {
        opacity: .25;
      }
    </style>
  </defs>
  <path d="m256,0C114.61,0,0,114.61,0,256s114.61,256,256,256,256-114.61,256-256S397.39,0,256,0Zm45.16,342.98l-51.44-71.41,22.9,79.89-70.66,21.01-53.43-186.37,70.66-21.01,20.76,72.41,10.63-81.74,66.3-19.71-16.33,96.18,73.61,89.05-73.01,21.71Z"/>
  <path class="c" d="m397.68,256l64.37-62.18-91.92-15.39,12.35-84.14-83.18,37.02-43.3-74.37-43.3,74.37-83.18-37.02,12.35,84.14-91.92,15.39,64.37,62.18-64.37,62.18,91.92,15.39-12.35,84.14,83.18-37.02,43.3,74.37,43.3-74.37,83.18,37.02-12.35-84.14,91.92-15.4-64.37-62.18Zm-43.64,71.25l9.64,65.68-70.57-31.41-37.11,63.74-34.17-58.69,14.79-4.4h0l-34.66,10.31-.87-3.04-52.78,23.49,10.53-71.72-77.08-12.91,54.14-52.3-54.14-52.3,68.53-11.48,4.16,14.51h0l-5.91-20.63,14.16-4.21-4.95,1.47-9.44-64.29,70.57,31.41,37.11-63.74,33.45,57.46,27.43-8.16-3.72,21.93h0l3.02-17.76,47.51-21.15-10.53,71.72,77.08,12.91-54.14,52.3,54.14,52.3-58.65,9.82-11.04-13.36h0l13.64,16.49-20.13,5.99Z"/>
  <g class="d">
    <polygon class="b" points="219.2 165.09 239.96 237.5 250.59 155.75 289.45 144.2 256 86.74 218.89 150.48 148.32 119.07 157.75 183.36 219.2 165.09"/>
    <polygon class="b" points="201.1 369.44 150.29 192.22 81.77 203.7 135.91 256 81.77 308.3 158.84 321.21 148.32 392.93 201.1 369.44"/>
    <polygon class="b" points="430.23 203.7 353.16 190.79 363.68 119.07 316.18 140.21 300.56 232.22 371.58 318.13 430.23 308.3 376.09 256 430.23 203.7"/>
    <polygon class="b" points="301.16 342.98 249.73 271.57 272.63 351.46 221.83 366.57 256 425.26 293.11 361.52 363.68 392.93 354.04 327.25 301.16 342.98"/>
  </g>
</svg>