<?xml version="1.0" encoding="UTF-8"?><svg id="Capa_2" xmlns="http://www.w3.org/2000/svg" viewBox="0 0 1019 1019"><g id="Capa_1-2"><g id="lidarr-group-logo" transform="translate(5e-6 .26738)"><path d="M978.94,311.16c-25.66-60.68-62.39-115.16-109.17-161.94-46.78-46.78-101.26-83.51-161.93-109.17C644.99,13.48,578.26,0,509.5,0s-135.49,13.48-198.34,40.06c-60.68,25.66-115.16,62.39-161.94,109.17s-83.51,101.26-109.17,161.94C13.48,374.01,0,440.74,0,509.5s13.48,135.49,40.06,198.34c25.66,60.68,62.39,115.16,109.17,161.93,46.78,46.78,101.26,83.51,161.94,109.17,62.85,26.58,129.58,40.06,198.34,40.06s135.49-13.48,198.34-40.06c60.68-25.66,115.16-62.39,161.93-109.17,46.78-46.78,83.51-101.26,109.17-161.93,26.58-62.85,40.06-129.58,40.06-198.34s-13.48-135.49-40.06-198.34Zm-441.82,607.91l-35.62,60.98v-60.14c-222.67-4.28-402.5-186.74-402.5-410.41S268.36,114.18,481.88,99.93l35.62-60.98v60.14c222.67,4.28,402.5,186.74,402.5,410.41s-169.36,395.32-382.88,409.57Z"/><path d="M616.65,393.5c31.25,28.88,50.85,70.19,50.85,116,0,84.44-66.58,153.62-150,157.8v253.64L825.56,393.5h-208.91Z"/><path d="M351.5,509.5c0-84.44,66.58-153.62,150-157.8V98.06L193.44,625.5h208.91c-31.25-28.88-50.85-70.19-50.85-116Z"/><circle cx="509.5" cy="509.5" r="142"/></g></g></svg>