<?xml version="1.0" encoding="utf-8"?>
<!-- Generator: Adobe Illustrator 26.3.1, SVG Export Plug-In . SVG Version: 6.00 Build 0)  -->
<svg version="1.1" id="Capa_1" xmlns="http://www.w3.org/2000/svg" xmlns:xlink="http://www.w3.org/1999/xlink" x="0px" y="0px"
	 viewBox="0 0 1024 1024" style="enable-background:new 0 0 1024 1024;" xml:space="preserve">
<g>
	<path d="M515.7,382.7L515.7,382.7c-72.6,0-130.7,58.1-130.5,130.7v1.2c0.3,71.8,58.7,129.8,130.5,129.5
		c72.6,0,130.7-58.1,130.7-130.7C646.4,440.8,588.3,382.7,515.7,382.7z"/>
	<path d="M188.4,456.6c-31.9,0-56.7,24.8-56.7,56.7v1.2c0.3,31,25.7,55.8,56.7,55.5c31.9,0,56.7-24.8,56.7-56.7
		C245.1,481.6,220.1,456.6,188.4,456.6z"/>
	<path d="M841.6,456.6c-31.7,0-56.7,24.8-56.7,56.7v1.2c0.3,31,25.7,55.8,56.7,55.5c31.7,0,56.7-24.8,56.7-56.7
		C898.3,481.6,873.5,456.6,841.6,456.6z"/>
	<path d="M515,1.4C232.2,1.4,3,230.6,3,513.4s229.2,512,512,512s512-229.2,512-512S797.8,1.4,515,1.4z M841.6,650.8
		c-54.6,0-101.6-33.1-123.6-79.9c-25.3,88.3-106.1,153.7-202.2,153.7c-96.7,0-177.8-66.2-202.7-155.2
		c-21.7,47.6-69.3,81.4-124.7,81.4C112.7,650.3,51.3,589.1,51,513.4c0.4-75.7,61.7-137.1,137.4-137.4c55.4,0,103,33.8,124.7,81.4
		c24.8-89.1,106-155.2,202.7-155.2v0c96.1-0.1,176.9,65.4,202.2,153.7c22-46.7,68.9-79.9,123.6-79.9
		c75.7,0.3,137.1,61.7,137.4,137.4C978.7,589.1,917.3,650.5,841.6,650.8z"/>
</g>
</svg>
