<?xml version="1.0" encoding="utf-8"?>
<!-- Generator: Adobe Illustrator 27.8.1, SVG Export Plug-In . SVG Version: 6.00 Build 0)  -->
<svg version="1.1" id="Capa_1" xmlns="http://www.w3.org/2000/svg" xmlns:xlink="http://www.w3.org/1999/xlink" x="0px" y="0px"
	 viewBox="0 0 250 250" style="enable-background:new 0 0 250 250;" xml:space="preserve">
<g>
	<path d="M171.5,121.1c-2.2-13-8.8-22.8-18.8-27.6c-10-4.8-21.8-4-33.3,2.3c-11,6-20.4,16.4-26.6,29.2c-6.2,12.8-8.5,26.7-6.5,39
		c2.2,13,8.8,22.8,18.8,27.6c4.3,2.1,8.8,3.1,13.5,3.1c17.3,0,36.1-13.3,46.4-34.5C171.3,147.3,173.6,133.5,171.5,121.1z
		 M138.7,100.7c3.4-0.1,6.7,0.6,9.6,2.1c5.1,2.5,9.1,7.1,11.4,13.3c-3.3,1.3-8.6,0.2-13.4-3.1C141,109.4,138.1,104.4,138.7,100.7z
		 M155.8,155.6c-10.7,22-31.4,34-46.3,26.7c-6.9-3.3-11.6-10.5-13.1-20.1c-1.7-10.2,0.3-21.9,5.6-32.8c5.3-10.9,13.2-19.7,22.4-24.7
		c4.3-2.4,8.6-3.7,12.6-4c-0.4,4.3,2.7,9.7,8.2,13.6c3.8,2.6,7.8,4,11.2,4c1.4,0,2.6-0.2,3.7-0.7c0.5,1.6,0.9,3.4,1.2,5.2
		C163.1,133.1,161.1,144.7,155.8,155.6z"/>
	<path d="M204.8,24.1c-0.3-22.8-63.5-23.9-76.2-23.9c-12.7,0-75.9,1.2-76.2,23.9h-0.1v200l0.2,0.9c1.1,4.2,9.9,25.2,75.4,25.2
		c1,0,2,0,3,0c28.6-0.3,49.4-4,61.7-11c11.1-6.4,12.3-13.6,12.4-15.7l0-199.4H204.8z M128.6,15c32.5,0,53,5.3,59.7,9.1h-0.4
		l-1.5,0.7c-10.9,5-33.6,8.3-57.8,8.3c-24.2,0-46.9-3.2-57.8-8.3l-1.5-0.7h-0.4C75.5,20.3,96,15,128.6,15z M130.7,235.3
		c-49.8,0.5-61.5-11.1-63.7-14V39.9c19.6,8,52.7,8.5,61.5,8.5c8.8,0,42-0.6,61.6-8.5v182.3C189,223.9,180,234.8,130.7,235.3z"/>
	<path d="M92.1,28.7c-2.4,0-6-1.2-7.7-1.8c-0.4-0.1-0.9-0.3-1.3-0.4c-1.5-0.4-3.1-0.8-3.4-2.2c-0.4-1.5,1.2-2.4,2.8-3.2
		c0.2-0.1,0.5-0.3,0.7-0.4c1.5-0.8,5.1-1.9,7.5-2c4.5-0.3,6.9,1.1,7.5,4.2c0.3,1.5,0.1,2.8-0.7,3.8c-0.9,1.2-2.6,1.9-5,2
		C92.4,28.7,92.3,28.7,92.1,28.7z M91.7,20.2c-0.3,0-0.6,0-0.9,0l0,0c-2.1,0.1-5.5,1.2-6.8,1.8c-0.2,0.1-0.5,0.3-0.7,0.4
		c-1,0.5-2.1,1.1-2,1.6c0.1,0.5,1.2,0.8,2.3,1.1c0.5,0.1,0.9,0.3,1.4,0.4c1.5,0.5,5.5,1.9,7.6,1.7c2-0.1,3.3-0.6,3.9-1.4
		c0.5-0.6,0.6-1.5,0.4-2.6C96.5,21.8,95.6,20.2,91.7,20.2z"/>
</g>
</svg>
