<?xml version="1.0" encoding="utf-8"?>
<!-- Generator: Adobe Illustrator 27.3.1, SVG Export Plug-In . SVG Version: 6.00 Build 0)  -->
<svg version="1.1" id="a" xmlns="http://www.w3.org/2000/svg" xmlns:xlink="http://www.w3.org/1999/xlink" x="0px" y="0px"
	 viewBox="0 0 500 478.4" style="enable-background:new 0 0 500 478.4;" xml:space="preserve">
<style type="text/css">
	.st0{display:none;opacity:0.5;fill:#FFFFFF;enable-background:new    ;}
</style>
<polygon id="b" points="157.2,232.4 0,0 161.7,0 317.8,232.4 161.7,463.5 0,463.5 "/>
<polygon id="c" class="st0" points="157.2,232.4 0,0 161.7,0 317.8,232.4 161.7,463.5 0,463.5 "/>
<polygon id="d" points="359.9,206.1 500,0 338.3,0 280.2,85.4 "/>
<path id="e" d="M280.2,379.3l27.3,37.6c26.2,41,60.4,61.5,100.2,61.5c42.1-1.1,71.8-37.6,83.1-51.2c0,0-20.5-18.2-46.7-49
	c-35.3-41-82-116.2-83.1-119.6L280.2,379.3L280.2,379.3z"/>
</svg>
