<?xml version="1.0" encoding="UTF-8"?>
<svg id="a" data-name="Capa 1" xmlns="http://www.w3.org/2000/svg" viewBox="0 0 365.89 512">
  <defs>
    <style>
      .b {
        fill-rule: evenodd;
      }
    </style>
  </defs>
  <path class="b" d="m338.89,96.74L209.7,22.06V0h-16.01v21.83l-.19-.33L63.32,96.74H0v16.02h114.22v77.58h41.39v-77.58h38.07v222.2c.59,0,11.52-.2,16.01,1.95V112.76h11.32v226.3c6.25,3.13,11.72,6.64,16.01,11.53V112.76h128.86v-16.02h-27.01Zm-191.09,51.98h-25.77v-35.96h25.77v35.96Zm45.88-51.98h-98.36l98.36-56.85v56.85Zm16.01,0v-56.17l97.18,56.17h-97.18Z"/>
  <path class="b" d="m9.57,304.66c0,26.19,12.88,49.25,32.41,63.71,5.08-1.36,10.15-2.15,15.42-2.34,2.15,0,3.51.19,5.66.39,6.05-25.41,29.48-42.41,56.81-42.41,15.42,0,30.66,4.3,41,14.27,4.88-10.16,6.44-21.5,6.44-33.61,0-13.88-3.52-27.55-10.55-39.48H20.11c-6.84,11.92-10.54,25.6-10.54,39.48Z"/>
  <rect x="21.09" y="217.31" width="41.39" height="41.63"/>
  <rect x="21.09" y="171" width="41.39" height="41.62"/>
  <rect x="67.75" y="217.31" width="41.39" height="41.63"/>
  <rect x="114.22" y="217.31" width="41.39" height="41.63"/>
  <rect x="67.75" y="171" width="41.39" height="41.62"/>
  <path class="b" d="m249.91,396.7c0-30.1-24.4-54.52-54.47-54.52-11.52,0-22.07,3.51-30.85,9.57-10.16-11.72-24.99-19.16-41.59-19.16-25.77,0-47.44,17.98-53.11,42.02-1.95-.39-3.9-.39-5.86-.19-30.26,0-54.67,24.43-54.67,54.52s24.6,54.52,54.67,54.52c3.9,0,7.62-.39,11.33-1.17,9.17,17.59,27.53,29.7,48.61,29.7,18.36,0,34.56-9.18,44.52-23.06,9.37,7.81,21.47,12.51,34.75,12.51,30.07,0,54.48-24.43,54.48-54.52,0-12.12-4.1-23.45-10.74-32.44,1.95-5.66,2.92-11.53,2.92-17.78Z"/>
</svg>