<?xml version="1.0" encoding="utf-8"?>
<!-- Generator: Adobe Illustrator 26.3.1, SVG Export Plug-In . SVG Version: 6.00 Build 0)  -->
<svg version="1.1"
	 id="svg10" xmlns:dc="http://purl.org/dc/elements/1.1/" xmlns:cc="http://creativecommons.org/ns#" xmlns:svg="http://www.w3.org/2000/svg" xmlns:inkscape="http://www.inkscape.org/namespaces/inkscape" xmlns:sodipodi="http://sodipodi.sourceforge.net/DTD/sodipodi-0.dtd" xmlns:rdf="http://www.w3.org/1999/02/22-rdf-syntax-ns#"
	 xmlns="http://www.w3.org/2000/svg" xmlns:xlink="http://www.w3.org/1999/xlink" x="0px" y="0px" viewBox="0 0 1024 1024"
	 style="enable-background:new 0 0 1024 1024;" xml:space="preserve">
<style type="text/css">
	.st0{fill-rule:evenodd;clip-rule:evenodd;}
</style>
<g id="g18" transform="matrix(1.3333333,0,0,-1.3333333,198.62766,515.8368)" inkscape:groupmode="layer" inkscape:label="ink_ext_XXXXXX">
	<g>
		<path d="M148.1-64.4H33.5L13.6-44.3l55.3,18.5c0,0-5.6,18.3-1.2,39.2l-19.1-0.1l-66.3-77.8h165.8V-64.4z"/>
		<path d="M505.8,14.8v-32.2h-52.4v32.1l-87.3-0.3c-1.1-16-6.7-26.7-6.7-26.7l70.1-35l-15.6-17.1H306.4v-0.1h175.2L546.2,15
			L505.8,14.8z"/>
	</g>
	<g>
		<path d="M102.7,59.2c16.7,9,30.4,12,41.5,11.5c20.3,15.5,64.4,48.3,75,48.3c11.4,0,58.6-32.6,75.8-44.9c24.1,9,52,5.1,64.4-22.3
			c15.5-34.3,0-64.1,0-64.1l69.9-34.9c-1.3,3.9-25.7,74.6-66.9,110.1c-42.5,36.5-111,81.2-198.2,51.4C77,84.5,13.6-44.3,13.6-44.3
			l55.3,18.5C68.9-25.8,51.3,31.6,102.7,59.2z"/>
		<path d="M33.5-64.2"/>
		<path d="M413.9-64.2"/>
		<path d="M221.9,58.5c-6.2,0-24.6-14.7-35.6-23.9c4.7-19.3,4.7-52.1,4.7-52.1h61.3c0,0-0.2,23.9,5.6,46.8
			C249.1,38.4,229,58.5,221.9,58.5z"/>
		<path d="M278,65.2c0.1,0.1,0.2,0.1,0.3,0.2c-18,14.1-51,39-59.1,39c-8.1,0-39-24.7-56.1-38.8c7.5-4.1,12.9-10.1,16.7-15.8
			c13,10.3,34.2,26.1,42.2,26.1c8.7,0,32.1-16.4,43.9-25.1C269.1,56.7,273.1,61.8,278,65.2z"/>
	</g>
	<path d="M78.3,38.2c5.5,7.8,13.4,15.1,24.4,21c4.4,2.4,8.6,4.3,12.6,5.9c2.4,6.8,3,14.2,1.5,21.8c-4.6,21.9-26,35.9-47.8,31.3
		c-21.8-4.6-35.9-26-31.3-47.9C41.8,50.8,59.2,37.6,78.3,38.2z M72.6,100.6c12.2,2.5,24.1-5.2,26.6-17.4C101.8,71,94,59.1,81.8,56.5
		C69.7,54,57.7,61.8,55.2,74C52.7,86.2,60.5,98.1,72.6,100.6z"/>
	<path d="M425.6,148.1c3.6-3.2,7-6.4,10.3-9.8c2.7,5,4.8,10.4,6.3,16.2C437.4,152.1,431.7,149.7,425.6,148.1z"/>
	<g>
		<path d="M252.2,260c10.4,0.3,29,2.3,43.8,11.7c-6,9.9-3.2,22.9-3.2,22.9c3.1,12-4.2,24.1-16.1,27.2c-12,3-24.2-4.2-27.2-16.2
			c-0.8-3.1-7-30.2,7.3-55.5C254.9,253.5,253.4,256.7,252.2,260z"/>
		<path d="M440.1,195.7c-16.3,50.7-60.2,55.4-95.5,59.2c-6.6,0.7-13.4,1.4-20.1,2.4c-2.4,0.3-4.6,0.8-6.7,1.2
			c-8.7-10-24.5-24.6-44-27.9c-4.9,3.8-9.2,8.2-12.8,13.2c12.2-16.8,31.4-27.1,57.2-30.8c7.5-1.1,14.7-1.8,21.7-2.6
			c1.5-0.2,3-0.3,4.4-0.5c14.7,13.1,15.5,32.2,14.4,43.4c12.3-1.6,25.1-3.9,37-8.7c-2.9-17.2-10.6-32.4-16.1-41.5
			c9.3-3.9,14.5-10,18-21c0.5-1.5,0.8-2.9,1.1-4.3c5.5-0.9,14.1-1.1,26.2,2.1c7.1,1.9,12.8,5.1,17.2,8.6c1.8-7.6,2.3-14.9,1.9-21.7
			C444.5,175.7,443.4,185.4,440.1,195.7z"/>
	</g>
	<path d="M359.4,51.8c1.2-2.7,2.3-5.4,3.1-8.1c19.8-1.4,38.1,12.1,42.3,32.1c4.6,21.8-9.4,43.2-31.3,47.8
		c-21.9,4.6-43.3-9.4-47.9-31.3c-1-4.9-1.1-9.7-0.4-14.3C339.3,76,352.1,68,359.4,51.8z M343.3,88.6c2.5,12.2,14.5,20,26.6,17.4
		c12.1-2.5,19.9-14.4,17.4-26.6c-2.5-12.2-14.5-20-26.6-17.4C348.5,64.5,340.7,76.5,343.3,88.6z"/>
	<g>
		<path d="M295.1,74.2c8.4,3.1,17.4,4.7,25.9,4.2c-0.6,4.8-0.5,9.9,0.5,14.9c2,9.7,7.1,18,14,24.1c-21.2,13.5-43.1,23.2-63.4,24.6
			c-31.3,2.2-51.6-0.6-64.4-4.1c2.3,1.7,4.9,3.5,7.6,5.4c-17.7-11.8-26.6-22.2-26.6-22.2v-17.9c13.5,9,25.5,15.9,30.4,15.9
			C230.5,119.1,277.9,86.3,295.1,74.2z"/>
		<path d="M221.9,58.5c-5.8,0-22-12.6-33.1-21.8V20.1C191,2.3,191-17.5,191-17.5h61.3c0,0-0.2,23.9,5.6,46.8
			C249.1,38.4,229,58.5,221.9,58.5z"/>
	</g>
	<path d="M377.7,172.4c9.8-2,19-5.1,27.8-8.9c59.7-39,86.5-113.1,86.5-113.1s-17.4,37.6-62,78.7c-32.5,29.9-73.5,42.7-93.3,47.4
		c-28.4,0.6-52.7-3.7-72.9-10.2c41.3-3.7,74.2-18.6,100-37.6c3.5,0.1,7-0.2,10.6-0.9c11.7-2.4,21.7-9.3,28.2-19.3
		c5.1-7.8,7.6-16.8,7.3-25.9c26.4-35,36.7-67.6,36.7-67.6s-17.2,21.3-42.8,46.4c-3.4-5.9-8.2-10.9-14.1-14.7
		c-7.4-4.8-15.8-7.3-24.4-7.3c-0.5,0-1,0-1.5,0c7.5-28.8-4.4-51.7-4.4-51.7l70.1-35l-15.6-17.1H303.3v-0.1h178.3l51.7,64.6
		C533.3,0.1,490.9,148.9,377.7,172.4z M422.5,81.6l49.2-45.2c0,0-2,26.4-38.5,77.1c0,0,29.1-22.9,46.5-67.9
		c17.4-45,16.9-56.9,16.9-56.9L422.5,81.6z"/>
	<path d="M151.8,39.3c-13.4,0-24.3-10.9-24.3-24.3s10.9-24.3,24.3-24.3c13.4,0,24.3,10.9,24.3,24.3S165.2,39.3,151.8,39.3z
		 M140.9,18.6c-4,0-7.2,3.2-7.2,7.2s3.2,7.2,7.2,7.2s7.2-3.2,7.2-7.2C148.1,21.8,144.9,18.6,140.9,18.6z"/>
	<path d="M290.1,39.3c-13.4,0-24.3-10.9-24.3-24.3s10.9-24.3,24.3-24.3S314.4,1.6,314.4,15C314.5,28.4,303.6,39.3,290.1,39.3z
		 M279.3,18.6c-4,0-7.2,3.2-7.2,7.2s3.2,7.2,7.2,7.2s7.2-3.2,7.2-7.2S283.3,18.6,279.3,18.6z"/>
	<path id="path644" inkscape:connector-curvature="0" d="M430.9-64.5h-17.1l15.6,17.1c0,0-0.3,0.9-0.9,2.5h17.1
		c0.6-1.6,0.9-2.5,0.9-2.5L430.9-64.5"/>
	<path d="M299.5-64.5c-2.9-8.7-8.9-16.5-17.9-21c-4.5-10.1-16.5-17.3-19-15.5c-1.8,1.2-1.9,6.4-1.5,11.5
		C238.6-88.6,221.5-72,221.5-72s-25.6-13.3-44.8-10.5c0.9-5.9,2.1-16.7-0.6-18.5c-3.6-2.5-25.5,12.6-19.8,28.6c-2.2,2.3-4,5-5.2,7.9
		H-17.7v-209.2c37.8-1.7,66.6-16.1,66.6-33.2h386.4c-3.1,4.4-4.6,9.1-4.6,13.9c0,18.1,22.1,33.1,50.9,34.7v193.8L299.5-64.5
		L299.5-64.5z M453.4-155.4h-54.9v9.5H426h27.5v-9.5H453.4z M440.4-114.1v-24.5h-28.8v24.5h-13.1L426-82.9l27.5-31.2L440.4-114.1
		L440.4-114.1z"/>
	<path id="path652" inkscape:connector-curvature="0" d="M221.5-72c0,0,1.2-1.1,3.2-2.7v35.2c0,1.5-1.2,2.7-2.7,2.7
		s-2.7-1.2-2.7-2.7v-33.7C220.6-72.4,221.5-72,221.5-72"/>
	<path id="path654" inkscape:connector-curvature="0" d="M251.8-35.6c0,0,18,21.2,6.4,30.3c-11.6,9.1-22.7-6.6-37.3-5.2
		C206.3-9.1,191,2.2,184.8-8.1s9.4-22.8,9.4-22.8s3.7,10.9,13.1,5.6c9.4-5.2,1.5-16.3,1.5-16.3s6.9-4.5,12.5-5.5
		c5.6-0.9,14.4,6.3,14.4,6.3s-4.5,12.6,5.1,17.5C250.4-18.4,251.8-35.6,251.8-35.6"/>
	<path id="path656" inkscape:connector-curvature="0" d="M73.2,29.8c0,0-13.8-17.9-12.7-44.4C61.7-41,99.7-64.5,99.7-64.5l-15,23.3
		c-3.7,5.8-2.5,13.5,2.9,17.8l23.2,18.5c0,0-31.3-10.1-36.5-2.6C69.1,0,73.2,29.8,73.2,29.8"/>
	<path id="path658" inkscape:connector-curvature="0" d="M361.8,45.6c0,0-2.2-23.3-7.9-34.8c-5.7-11.6-25.5-6.3-25.5-6.3
		s22-11.2,22-18.3s-14.9-29.4-14.9-29.4S383.9-12.8,361.8,45.6"/>
	<path id="path660" inkscape:connector-curvature="0" d="M72.7-64.5c0,0-9.7,7.2-15.9,17.4s-8.2,16.4-8.2,16.4s-0.7-13.4,3-22.4
		c3.7-8.9,6.7-11.4,6.7-11.4H72.7"/>
	<path id="path662" inkscape:connector-curvature="0" d="M368.8-64.5c0,0,9,7.4,16.9,21.2c7.8,13.8,10.7,31.9,10.7,31.9
		s3.7-26.1,1.2-37.3s-6.5-15.9-6.5-15.9L368.8-64.5"/>
	<path id="path668" inkscape:connector-curvature="0" d="M546.2,15l-64.6-79.5v-184.1c4.9,6.5,10.7,9.9,16.7,9.9
		c5.7,0,11.2-3.1,16-9l32,58V15H546.2z"/>
	<path class="st0" d="M235,386.9c-212,0-384-171.9-384-384s171.9-384,384-384s384,171.9,384,384S447.1,386.9,235,386.9z M235-304.3
		C65.4-304.3-72.2-166.8-72.2,2.9S65.4,310.1,235,310.1c5.3,0,10.6-0.1,15.9-0.4c4.5,9.5,15.2,14.8,25.8,12.1
		c8.6-2.2,14.7-9.1,16.4-17.2C435,277.5,542.2,152.7,542.2,2.9C542.2-166.8,404.7-304.3,235-304.3z"/>
</g>
</svg>
