<?xml version="1.0" encoding="UTF-8"?><svg id="Capa_2" xmlns="http://www.w3.org/2000/svg" viewBox="0 0 992 992"><defs><style>.cls-1{fill-rule:evenodd;}</style></defs><g id="Capa_1-2"><path class="cls-1" d="M689.49,359.29h0c-34.97,0-60.18,10.08-75.6,30.24-15.43,19.96-23.15,53.7-23.15,101.22s7.92,81.57,23.76,102.15c15.84,20.37,41.25,30.55,76.22,30.55,31.48,0,54.93-11.42,70.36-34.25,15.43-23.04,23.14-56.06,23.14-99.06s-7.71-76.84-23.14-98.44c-15.43-21.6-39.29-32.4-71.59-32.4Z"/><path class="cls-1" d="M300.66,358.68c-30.04,0-53.08,11.73-69.12,35.18-15.84,23.25-23.76,56.16-23.76,98.75,0,42.59,7.82,75.09,23.45,97.52,15.84,22.22,39.19,33.33,70.05,33.33h0c34.15,0,59.04-9.15,74.68-27.46,15.64-18.31,23.97-49.17,25-92.58v-11.42c0-47.32-8.02-81.37-24.07-102.14-16.05-20.78-41.45-31.17-76.22-31.17Z"/><path class="cls-1" d="M496,0C222.07,0,0,222.07,0,496s222.07,496,496,496,496-222.07,496-496S769.93,0,496,0Zm-43.82,812h-51.23v-144.73c0-20.57,1.13-38.06,3.4-52.46h-4.01c-23.66,34.36-59.25,51.53-106.77,51.53-43.61,0-77.66-15.33-102.14-45.98-24.48-30.65-36.72-73.45-36.72-128.38,0-55.34,12.34-98.54,37.03-129.61,24.69-31.07,59.04-46.6,103.07-46.6,46.29,0,81.88,17.49,106.77,52.46h2.78l7.41-46.29h40.43v490.05Zm347.79-191.64c-24.69,30.65-59.04,45.98-103.07,45.98-22.01,0-42.17-4.01-60.48-12.03-18.1-8.23-33.33-20.78-45.67-37.65h-3.7l-10.8,43.51h-36.72V180h51.23v116.65c0,26.13-.82,49.58-2.47,70.36h2.47c23.86-33.74,59.25-50.61,106.16-50.61h0c44.44,0,78.9,15.22,103.38,45.67,24.69,30.24,37.03,73.14,37.03,128.68,0,55.55-12.45,98.75-37.34,129.61Z"/></g></svg>