<?xml version="1.0" encoding="utf-8"?>
<!-- Generator: Adobe Illustrator 26.3.1, SVG Export Plug-In . SVG Version: 6.00 Build 0)  -->
<svg version="1.1" id="Capa_1" xmlns="http://www.w3.org/2000/svg" xmlns:xlink="http://www.w3.org/1999/xlink" x="0px" y="0px"
	 viewBox="0 0 1024 1024" style="enable-background:new 0 0 1024 1024;" xml:space="preserve">
<path id="Shape" d="M175.3,175.9l7.5,714.5c-60.2,7.5-105.3-22.6-105.3-82.7L70,213.6c0-188,173-233.2,278.3-158l534,308.4
	c75.2,52.7,90.3,150.4,52.7,218.1c-7.5-52.7-30.1-82.7-75.2-112.8L258,130.8C212.9,100.7,175.3,108.2,175.3,175.9z"/>
<path id="Shape_00000169522040159989254350000003880789546440744084_" d="M130.2,928.1c45.1,15,90.3,7.5,127.9-15l616.8-361
	c37.6,52.7,30.1,105.3-15,135.4l-519,300.9C265.6,1025.9,167.8,988.3,130.2,928.1z"/>
<path id="Shape_00000043453457190835914040000011071534926451140748_" d="M310.7,717.5l368.6-210.6l-361-203.1L310.7,717.5z"/>
</svg>
