<?xml version="1.0" encoding="utf-8"?>
<!-- Generator: Adobe Illustrator 26.3.1, SVG Export Plug-In . SVG Version: 6.00 Build 0)  -->
<svg version="1.1" id="Capa_1" xmlns="http://www.w3.org/2000/svg" xmlns:xlink="http://www.w3.org/1999/xlink" x="0px" y="0px"
	 viewBox="0 0 1024 1024" style="enable-background:new 0 0 1024 1024;" xml:space="preserve">
<style type="text/css">
	.st0{display:none;}
	.st1{display:inline;}
</style>
<g>
	<path d="M512,2C230.3,2,2,230.3,2,512s228.3,510,510,510s510-228.3,510-510S793.7,2,512,2z M512,952C269,952,72,755,72,512
		S269,72,512,72s440,197,440,440S755,952,512,952z"/>
	<g class="st0">
		<path class="st1" d="M180.9,329.5c4.4-1.8,9-2.1,12.7-2.3c1.4-0.1,2.8-0.2,4-0.3l0.5-0.1h0.5c40.1,2.2,77.5,6.4,112.1,12.6
			c10.6-12.2,22.3-23.4,34.9-33.4c-36.6-8.9-81.7-16.2-136.9-19.6C198.5,300,189.2,314.5,180.9,329.5z"/>
		<path class="st1" d="M245.7,513.3c0-64.2,22.8-123,60.8-168.9c-31-5.4-66.9-9.7-108.2-11.9c-7.6,0.9-16.5-0.5-22.8,8.4
			c0-0.3,0-0.6,0-0.9c0-0.1,0-0.1,0-0.2c-3.4,6.6-6.6,13.4-9.6,20.2c1.2,68.3,3.5,220.7,4.8,314.5c15.4,32.2,35.1,61.9,58.6,88.3
			c60.3,13.9,171.3,46.7,259.2,114.6c0.1,0.1,0.9,0.3,2,0.3c4.5,0,14.8-2.6,12.2-20.6l0,0c0.1,0,0.1-15.3-0.1-40
			c2.2-3.8,3.5-9.4,2.4-17.6c0.1-1.1,0.1-2.5,0.1-4.5c0-3.1,0-7.6,0-13.4c0-1,0-2.1,0-3.3C361.2,775.2,245.7,657.8,245.7,513.3z"/>
		<path class="st1" d="M212.8,280.9c56,3.7,101.6,11.4,138.5,20.6c3.5-2.6,7-5.1,10.6-7.6c-37.4-10-84-18.3-141.5-22.6
			C217.8,274.6,215.3,277.7,212.8,280.9z"/>
		<path class="st1" d="M160.4,373c-17,43-26.4,89.9-26.4,139c0,53.1,11,103.7,30.8,149.6C163.5,574.4,161.6,443,160.4,373z"/>
		<g class="st1">
			<path d="M510.9,778.3c-0.1,0-0.1,0-0.2,0c0,0,0,0-0.1,0c0,1.1,0,2.2,0,3.2c0,5.9,0,10.4,0,13.4c0,1.8,0,3.2,0,4.3
				c0.1,0.6,0.1,1.3,0.2,1.9c0-0.3,0-0.5,0.1-0.8c0-1.1,0-2.5,0-4.3c0-3.1,0-7.7,0-13.5C510.9,781.2,510.9,779.8,510.9,778.3z"/>
			<path d="M846.2,335.2c0,1.5-0.1,3.1-0.1,4.8c0,0.2,0,0.3,0,0.5c-6.3-8.9-15.2-7.6-22.8-8.5c-41.5,2.2-77.5,6.6-108.7,12.1
				c38.2,45.9,61.1,104.9,61.1,169.3c0,144.4-115.5,261.8-259.1,264.9c0,1.5,0,3,0,4.3c0,5.8,0,10.3,0,13.4c0,2,0,3.5,0.1,4.5
				c-1.1,8.3,0.3,13.8,2.4,17.6c-0.2,24.5-0.2,39.6-0.1,39.6l0,0c-2.6,18,7.7,20.7,12.2,20.7c1.1,0,1.9-0.2,2-0.3
				C622.3,809,735.3,776.3,795,762.6c22.1-24.9,41-52.8,56-83c1.4-96.1,3.8-258.6,5-325.1C852.8,348.1,849.6,341.6,846.2,335.2z"/>
			<path d="M823.4,326.3l0.5,0.1c1.2,0.1,2.6,0.2,4,0.3c3.8,0.2,8.3,0.5,12.8,2.3c0-0.2,0-0.5,0-0.7c0-1.2,0.1-2.2,0.1-3
				c-7.8-13.7-16.4-26.8-25.7-39.3c-56.3,3.4-102.3,10.8-139.4,19.9c12.5,10,24.1,21.1,34.7,33.1c34.7-6.3,72.4-10.5,112.6-12.7
				L823.4,326.3z"/>
			<path d="M861.2,367.1c-1.2,69.7-3.3,210.5-4.6,300.3C878.1,620,890,567.4,890,512C890,460.7,879.8,411.8,861.2,367.1z"/>
			<path d="M669.9,301.5c37.4-9.4,83.9-17.2,141-20.9c-2.5-3.2-5-6.4-7.6-9.5c-58.7,4.2-106.1,12.7-143.9,22.8
				C662.9,296.4,666.5,298.9,669.9,301.5z"/>
			<path d="M536.7,882.6c-1.3,1.1-3.1,1.6-5.6,1.6s-8.8-0.6-13.4-6c-4.1-4.8-5.6-11.7-4.4-20.7c0-0.7,0-1.5,0-2.5c0-1.8,0-4.5,0-7.9
				c0-6.4,0.1-15.6,0.1-27.5c-1.4-2.9-2.3-6.2-2.6-9.8c-0.4,3.2-1.2,6.1-2.5,8.7c0.1,12,0.1,21.3,0.1,27.8c0,3.5,0,6.2,0,8
				c0,1,0,1.8,0,2.5c1.2,8.9-0.3,15.9-4.4,20.6c-4.7,5.4-10.9,6-13.4,6s-4.3-0.5-5.6-1.6c-81-62.6-182-95.4-248.8-111.5
				C305,844,403.1,890,512,890s207.1-46.1,276.1-119.8C721.3,786.1,618.7,819.1,536.7,882.6z"/>
			<path d="M510.7,248.3c52.4,0,101.3,15.2,142.4,41.5c38.2-10.6,86.1-19.6,145.7-24.1C729.5,185.1,626.7,134,512,134
				c-114.9,0-217.8,51.2-287.1,132.1c58.5,4.5,105.6,13.4,143.3,23.8C409.3,263.6,458.2,248.3,510.7,248.3z"/>
		</g>
	</g>
	<path d="M502.5,817.1c2.2-3.8,3.5-9.4,2.4-17.6c0.1-1.1,0.1-2.5,0.1-4.5c0-3.1,0-7.6,0-13.4c0-11.1-0.1-27.1-0.3-47.6
		c-0.3-38.1-0.7-89.3-1.2-144.2s-1-106.1-1.4-144.2c-0.2-20.5-0.4-36.5-0.6-47.6c-0.1-5.8-0.2-10.3-0.2-13.4c0-1.6-0.1-2.9-0.1-3.8
		v-1c0-0.1,0-0.4-0.1-0.8s-0.1-0.8-0.3-1.1c-1.7-6.6-9-28.1-22.8-33.6c-0.3-0.2-1-0.7-1.5-1c-33.9-23.5-114.7-64.2-275.8-72.9h-0.4
		l-0.4,0.1c-1.2,0.2-2.6,0.2-4,0.3c-16.6,1-30.3,5.8-30.9,54v2.1l0.1,0.1c0.7,21.4,3.9,238.6,5.6,354.6c0,2.4,0.5,5.7,1.7,8.9
		c0.4,29.3,0.7,48.4,0.7,48.4l0,0c0,0,0,14.5,12.2,15.3c0.6,0.7,176,25.4,303,123.5c0.6,0.7,17.4,2.1,14.2-20.3
		C502.7,857.2,502.7,841.9,502.5,817.1z M196.5,280.5c1.3-0.1,2.7-0.2,4.1-0.3c158.3,8.7,237.2,48.3,270.2,71.2
		c1.5,1,2.1,1.5,2.8,1.8l0.5,0.2c9.3,3.5,16.5,23.8,17.2,27.1l-0.1-0.1c0.1,1.8,0.4,16.6,0.6,39.7c-3.4-6.1-8.1-12-13.7-14
		c-4.5-2.2-78-62.7-279.8-73.5c-7.6,0.9-16.5-0.5-22.8,8.4c0-0.3,0-0.6,0-0.9c-0.1-4.9-0.2-8.8-0.3-11.4c0-1.8-0.1-3.1-0.2-4.1
		C175.5,281.8,185.7,281.2,196.5,280.5z"/>
	<path d="M856.5,324.5c-0.6-48.3-14.3-53.1-30.9-54.1c-1.4-0.1-2.7-0.2-4-0.3l-0.4-0.1h-0.4c-161.1,8.8-241.9,49.6-275.8,73.1
		c-0.6,0.4-1.2,0.8-1.5,1c-13.7,5.6-21.1,27.1-22.8,33.7c-0.1,0.3-0.2,0.6-0.2,1c-0.1,0.4-0.1,0.7-0.1,0.8v0.9c0,1-0.1,2.3-0.1,4
		c-0.1,3.1-0.1,7.7-0.2,13.5c-0.2,11.1-0.4,27.2-0.6,47.7c-0.4,38.2-0.9,89.5-1.4,144.5s-0.9,106.4-1.2,144.5
		c-0.1,20.5-0.2,36.6-0.3,47.7c0,5.8,0,10.3,0,13.4c0,2,0,3.5,0.1,4.5c-1.1,8.3,0.3,13.8,2.4,17.6c-0.2,24.6-0.2,39.8-0.1,39.6
		c-3.2,22.5,13.5,21.1,14.2,20.4c127-98.4,302.4-123.2,303-123.8c12.3-0.8,12.3-15.4,12.3-15.4s0.3-18.9,0.7-48.1
		c1.2-3.2,1.7-6.5,1.7-8.9c1.7-116.2,4.9-334,5.6-355.4l0.1-0.1L856.5,324.5z M547.4,353.4l0.5-0.2c0.6-0.3,1.3-0.8,2.8-1.8
		c33-22.9,111.9-62.6,270.2-71.3c1.4,0.2,2.8,0.2,4.1,0.3c10.8,0.7,21,1.3,21.5,44.1c-0.1,0.9-0.1,2.2-0.2,4.1
		c-0.1,2.7-0.2,6.5-0.3,11.5c0,0.2,0,0.3,0,0.5c-6.3-8.9-15.2-7.6-22.8-8.5c-201.8,10.9-275.3,71.4-279.8,73.7
		c-5.6,2.1-10.3,8-13.7,14.1c0.3-22.9,0.5-37.6,0.6-39.3l-0.1,0.1C530.9,377.2,538.1,356.9,547.4,353.4z"/>
</g>
</svg>
