<?xml version="1.0" encoding="utf-8"?>
<!-- Generator: Adobe Illustrator 26.3.1, SVG Export Plug-In . SVG Version: 6.00 Build 0)  -->
<svg version="1.1" id="Capa_1" xmlns="http://www.w3.org/2000/svg" xmlns:xlink="http://www.w3.org/1999/xlink" x="0px" y="0px"
	 viewBox="0 0 216.7 216.9" style="enable-background:new 0 0 216.7 216.9;" xml:space="preserve">
<style type="text/css">
	.st0{fill-rule:evenodd;clip-rule:evenodd;}
</style>
<g>
	<path class="st0" d="M43,157.4c13.9-13.9,16.1-29.9,16.1-47.9c0-17.5-2.9-33.8-15.6-46.5c-8.8-8.8-21-21-21-21
		C9,59,1.6,78.5,0.3,100.5c-0.1,0.2-0.2,0.5-0.2,0.7C0,103.5,0,105.9,0,108.4c0,2.4,0,4.8,0.1,7.2c0.2,4.3,0.7,8.6,1.5,12.8
		c3.1,17.8,10.5,33.9,22.3,48.1C24,176.5,33.7,166.7,43,157.4z"/>
	<path class="st0" d="M61.1,43.9c13,13,29.7,16.3,47.6,16.3c18.5,0,35.1-3.6,48.6-17.1c8.2-8.2,19.1-19,19.3-19.2
		C157.2,8,134.5,0,108.5,0C82.7,0,60.1,7.8,40.8,23.5L61.1,43.9z"/>
	<path class="st0" d="M172.2,64.9C159.2,78,158,89.4,158,109.5c0,17.9,2.9,34.4,16.2,47.7c9.6,9.6,18.7,18.7,19,18.9
		c15.7-19.4,23.5-41.9,23.5-67.7c0-27.4-4.3-45.7-22-66c1.6,1.8,0,0,0,0L172.2,64.9z"/>
	<path class="st0" d="M157.3,176.9c-15.6-15.6-28-17.1-48.6-17.1c-19.8,0-33.2,1.8-47.7,16.3c-8.5,8.5-18.2,18.2-18.5,18.6
		c0.9,0.7,1.8,1.4,2.8,2.1c18.2,13.5,39.2,20.2,63.2,20.2c23.9,0,45-6.7,63.3-20.2c1-0.7,2.1-1.5,3.1-2.3L157.3,176.9z"/>
</g>
<g>
	<path class="st0" d="M78.7,114c-0.2-1.2-0.3-2.3-0.4-3.6c0-0.7-0.1-1.3-0.1-2c0-0.7,0-1.4,0.1-2c0-0.1,0-0.1,0.1-0.2
		c0.4-7.4,3.3-13.7,8.7-19.1c5.9-5.8,13-8.8,21.2-8.8c8.3,0,15.4,2.9,21.2,8.8c5.8,5.9,8.8,13,8.8,21.3s-2.9,15.3-8.8,21.2
		c-0.2,0.2-0.4,0.4-0.6,0.6c-1,0.9-2,1.8-3.1,2.6c-5.1,3.7-10.9,5.6-17.6,5.6s-12.5-1.9-17.5-5.6c-1.3-0.9-2.6-2-3.8-3.2
		C82.5,125.2,79.7,120,78.7,114z"/>
	<path d="M183.3,187l-27.8-28.8l1.4-1.4l27.8,28.8L183.3,187z M33.1,186.5l-1.4-1.4L59,157.6l1.4,1.4L33.1,186.5z M143.5,75.1
		l-1.4-1.4l15-14.6l0.7,0.7l-0.7-0.7l28.1-27.4l1.4,1.4l-28.1,27.4L143.5,75.1z M70.9,74L30.1,33.2l1.4-1.4l40.9,40.7L70.9,74z"/>
	<path d="M62.1,160.9l-5-4.9l16.8-17.4l5,4.9L62.1,160.9z M153.9,160.1l-18-17.9l4.9-5l18,17.9L153.9,160.1z M73.7,80.2L56.5,63.1
		l4.9-5l17.2,17.1L73.7,80.2z M143.3,79.4l-5-4.9l17-17.2l5,4.9L143.3,79.4z"/>
</g>
</svg>
