<?xml version="1.0" encoding="utf-8"?>
<!-- Generator: Adobe Illustrator 26.3.1, SVG Export Plug-In . SVG Version: 6.00 Build 0)  -->
<svg version="1.1" id="Capa_1" xmlns="http://www.w3.org/2000/svg" xmlns:xlink="http://www.w3.org/1999/xlink" x="0px" y="0px"
	 viewBox="0 0 64 64" style="enable-background:new 0 0 64 64;" xml:space="preserve">
<g>
	<path d="M13.5,35.6l18.6-1.7c0.3-1.2,1-2.2,2.1-2.9c1.6-1,3.5-1,5.1-0.1l9.4-7.8c-0.4-1-0.5-2.2-0.1-3.3c0.2-0.6,0.5-1.1,0.9-1.6
		C45.4,13.1,39.1,9.7,32,9.7c-12.2,0-22.2,10-22.2,22.2c0,0.3,0,0.7,0,1c0.6,0.1,1.2,0.3,1.7,0.6C12.4,34,13.1,34.8,13.5,35.6z"/>
	<path d="M38.1,39.8c-2,0.5-4.2-0.2-5.4-2.1c-0.1-0.2-0.2-0.4-0.3-0.6l-18.6,1.7c-0.1,0.4-0.3,0.9-0.5,1.3c-0.3,0.5-0.7,1-1.2,1.4
		c3.6,7.4,11.2,12.5,20,12.5c3.8,0,7.4-1,10.5-2.6c-0.2-0.6-0.3-1.2-0.2-1.8c0.1-0.9,0.4-1.7,0.9-2.4L38.1,39.8z"/>
	<path d="M51.6,26.1c-0.3-0.1-0.6-0.2-0.9-0.4l-9.3,7.8c0.6,1.5,0.3,3.3-0.6,4.6l5.1,7.3c0.6-0.2,1.2-0.2,1.8-0.2
		c0.6,0.1,1.2,0.2,1.7,0.5c3-3.8,4.8-8.6,4.8-13.8c0-1.9-0.2-3.8-0.7-5.6C52.9,26.3,52.2,26.3,51.6,26.1z"/>
	<path d="M32,0C14.3,0,0,14.3,0,32s14.3,32,32,32s32-14.3,32-32S49.7,0,32,0z M57.5,31.9c0,6.1-2.2,11.8-5.8,16.1
		c0.3,0.7,0.5,1.6,0.4,2.4c-0.3,2.7-2.6,4.7-5.3,4.5c-0.9-0.1-1.6-0.4-2.3-0.9c-3.7,2.1-7.9,3.3-12.5,3.3
		c-10.2,0-19.1-6.1-23.1-14.8c-0.8,0-1.6-0.2-2.3-0.7c-2.3-1.4-3.1-4.4-1.7-6.7c0.4-0.7,1-1.3,1.7-1.7c0-0.5-0.1-1.1-0.1-1.6
		C6.5,17.9,18,6.4,32,6.4c8.3,0,15.7,4,20.4,10.2c0.8-0.1,1.6-0.1,2.4,0.2c2.6,0.9,3.9,3.7,3.1,6.2c-0.3,0.8-0.7,1.5-1.3,2
		C57.1,27.2,57.5,29.5,57.5,31.9z"/>
</g>
</svg>
