<?xml version="1.0" encoding="UTF-8"?>
<svg id="a" data-name="Capa 1" xmlns="http://www.w3.org/2000/svg" viewBox="0 0 472.7 512">
  <defs>
    <style>
      .b {
        opacity: .75;
      }
    </style>
  </defs>
  <path class="b" d="m237.1,0c-60.75,0-110,49.25-110,110,0,51.98,36.06,95.51,84.53,107,7.1-4.55,15.49-7.23,24.53-7.23s17.84,2.79,25.04,7.54c49.15-10.99,85.89-54.85,85.89-107.32C347.1,49.25,297.85,0,237.1,0Z"/>
  <path class="b" d="m362.61,218.11c-31.96,0-60.72,13.82-80.75,35.85.03.67.1,1.33.1,2.01,0,17.65-9.82,32.97-24.23,40.75-3.01,10.09-4.65,20.78-4.65,31.87,0,61.01,49.04,110.47,109.53,110.47s109.53-49.46,109.53-110.47-49.04-110.47-109.53-110.47Z"/>
  <path class="b" d="m190.36,255.96c0-.61.07-1.21.09-1.82-20.03-22.14-48.87-36.03-80.93-36.03C49.04,218.11,0,267.57,0,328.58s49.04,110.47,109.53,110.47,109.53-49.46,109.53-110.47c0-11.12-1.65-21.85-4.68-31.97-14.3-7.82-24.02-23.08-24.02-40.64Z"/>
  <path class="b" d="m190.36,255.96c0-17.45,9.6-32.63,23.75-40.49,3.21-10.39,4.94-21.44,4.94-32.9,0-61.01-49.04-110.47-109.53-110.47S0,121.57,0,182.58s49.04,110.47,109.53,110.47c32.04,0,60.86-13.88,80.89-36,0-.36-.05-.72-.05-1.08Z"/>
  <path class="b" d="m261.91,294.17c-7.34,5.04-16.2,7.99-25.75,7.99s-18.41-2.95-25.75-7.99c-48.06,11.68-83.78,55.31-83.78,107.37,0,61.01,49.04,110.47,109.53,110.47s109.53-49.46,109.53-110.47c0-52.06-35.72-95.68-83.78-107.37Z"/>
  <path class="b" d="m362.71,72.58c-60.75,0-110,49.25-110,110,0,11.35,1.72,22.29,4.91,32.59,14.48,7.76,24.35,23.11,24.35,40.8,0,.41-.05.81-.06,1.22,20.1,21.75,48.85,35.39,80.8,35.39,60.75,0,110-49.25,110-110s-49.25-110-110-110Z"/>
</svg>