<?xml version="1.0" encoding="UTF-8"?>
<svg id="a" data-name="Capa 1" xmlns="http://www.w3.org/2000/svg" viewBox="0 0 504.16 512">
  <path d="m492.73,214.31c-35.21-62.16-71.71-123.6-107.88-185.22C373.58,9.92,356.03.31,334.13.22,253.42-.1,172.7-.04,91.98.2c-18.46.05-33.28,7.92-42.86,24.19-14.24,24.16-28.6,48.27-42.37,72.7-9.46,16.79-8.81,33.87.94,50.58,16.81,28.79,33.11,57.9,50.55,86.31,9.46,15.41,9.21,29.06-.22,44.37-16.92,27.48-32.4,55.85-49.04,83.51-11.73,19.5-11.37,38.32.16,57.61,12.49,20.9,24.99,41.81,36.75,63.12,11.29,20.46,28.16,29.63,51.28,29.42,38.64-.36,77.28-.1,115.92-.1,39.17,0,78.34-.02,117.51,0,24.52.02,43.31-9.91,55.81-31.39,35.28-60.61,71.12-120.9,105.81-181.83,15.62-27.43,16.05-56.93.51-84.37ZM94.91,437.86c-3.08,5.25-6.22,10.47-9.19,15.78-2.49,4.45-4.87,5.36-7.77.34-11.28-19.47-22.58-38.92-33.96-58.33-2.91-4.97-.8-9.07,1.68-13.31,16.04-27.42,31.68-55.07,48.13-82.24,17.97-29.67,17.93-58.69-.05-88.34-16.33-26.93-31.7-54.44-47.82-81.5-3.72-6.24-3.83-11.33-.05-17.57,10.71-17.65,20.99-35.56,31.25-53.47,3.2-5.58,5.52-6.3,9.08-.19,32.78,56.26,65.7,112.44,98.59,168.64,5.05,8.64,7.72,17.95,7.87,25.97.14,13.75-3.96,24.19-9.84,34.19-29.36,49.98-58.63,100.02-87.93,150.03Zm102.21-228.68c-12.82-20.36-24.44-41.49-36.55-62.3-4.84-8.31-4.02-9.84,5.73-9.86,36.52-.08,73.03.07,109.55-.08,10.28-.04,17.27,4,22.54,13.08,15.13,26.09,30.46,52.09,46.55,77.59,12.08,19.15,12.28,37.17.19,56.39-16.34,25.97-31.87,52.47-47.39,78.94-4.83,8.23-11.43,12.02-20.73,11.98-18.52-.07-37.05-.02-55.57-.02v.03c-18.52,0-37.05.09-55.57-.04-9.24-.06-10.08-1.62-5.48-9.53,12.1-20.82,23.69-41.96,36.55-62.3,19.91-31.52,20.08-62.31.18-93.9Zm258.27,69.71c-34.61,59.47-69.39,118.85-103.95,178.36-5.3,9.13-12.3,13.45-23.16,13.4-71.99-.27-143.99-.14-215.98-.14-1.59,0-3.18-.04-4.76-.07-5.48-.12-6.41-2.63-3.79-7.11,4.15-7.08,8.25-14.18,12.38-21.27,7.6-13.03,15.52-25.89,22.66-39.17,3.65-6.78,8.43-8.97,15.91-8.92,40.23.28,80.47-.2,120.69.27,18.28.21,31.13-6.79,40.27-22.79,15.5-27.11,31.86-53.72,47.95-80.49,13.99-23.28,14.1-46.5.1-69.8-16.49-27.45-33.23-54.76-49.3-82.46-8.49-14.63-20.63-21.02-37.22-20.93-40.76.21-81.52-.12-122.28.22-7.89.06-12.57-2.5-16.42-9.43-10.92-19.66-22.57-38.92-33.83-58.39-4.12-7.13-3.28-8.66,5.05-8.68,37.06-.09,74.11-.04,111.17-.06,35.73,0,71.47.24,107.2-.15,10.82-.12,17.94,4.04,23.27,13.23,34.55,59.51,69.33,118.89,103.96,178.35,8.88,15.25,8.98,30.76.1,46.03Z"/>
</svg>