<?xml version="1.0" encoding="utf-8"?>
<!-- Generator: Adobe Illustrator 26.3.1, SVG Export Plug-In . SVG Version: 6.00 Build 0)  -->
<svg version="1.1" id="Capa_1" xmlns="http://www.w3.org/2000/svg" xmlns:xlink="http://www.w3.org/1999/xlink" x="0px" y="0px"
	 viewBox="0 0 512 512" style="enable-background:new 0 0 512 512;" xml:space="preserve">
<g>
	<path d="M240,0.6C191.1,4.8,152.5,17.9,114.7,43C64.3,76.5,27.2,126.8,10.5,184.1c-7.1,24.4-9.9,44.8-9.9,71.9s2.8,47.5,9.9,71.9
		c21.7,74.6,77.9,136.4,150.7,165.7c67,26.9,144.4,23.7,209.3-8.9c47.4-23.7,87.6-63.2,112-110c43-82.5,38.3-181-12.3-258.2
		c-19.7-30-43.3-53.8-72.9-73.5C364.3,21.1,330.2,8.2,290,2.5C279.6,1,248.6-0.2,240,0.6z M245.7,21.1c34.3,13.5,62.3,38,73.4,64
		c10.9,25.5,10,52.8-2.3,73.7c-4.7,8-16.1,19.2-24.2,23.7c-12.2,6.8-20.2,8.8-35.6,8.9c-15.5,0.1-21.9-1.2-34.5-7.3
		C197.1,172,183.7,148,187,120.8c1.7-14.3,8.9-32.7,15.1-38.9c2.6-2.6,7.1-2.4,9.7,0.4c2.1,2.2,2.2,2.9,1.6,15.8
		c-0.9,17,0.6,23.2,7,29.5c10.3,10.3,30.5,9.7,39.5-1.3c4.4-5.3,6.1-11.3,6.1-21.3c0-19-9.5-42.9-27.6-69.3
		c-4.1-5.9-7.4-11.4-7.4-12.2c0-1.9,3.6-5.5,5.5-5.5C237.3,18,241.4,19.4,245.7,21.1z M169.7,187.5c2.8,0.8,10.2,4.9,16.4,9.2
		c33.6,22.5,66.9,28.7,101.8,18.7c11.4-3.3,28.6-11.8,38.9-19.3c11.4-8.2,15.4-9.6,27.7-9.6c9.3,0,10.5,0.2,16.7,3.3
		c17.9,8.8,38.4,43.9,46.3,79.2c2.3,10.2,3.1,39,1.5,51.7c-6.6,53.3-39.2,110.4-77.5,135.8c-15.9,10.6-38.5,19-59.8,22.1
		c-15.4,2.3-47.1,1.5-60.5-1.5c-49.4-11-83-39.3-108.2-91.3c-8.1-16.8-13.9-33.6-17.7-51.5c-2.5-11.6-2.7-14.8-2.8-34.3
		c0-23.5,0.8-29.3,6.7-48c7.4-23.3,24.4-50.9,36.8-59.5C144.9,186.3,158.7,184.2,169.7,187.5z"/>
	<path d="M244.1,261.5c-3,0.9-6.9,2.4-8.7,3.5c-4.7,3-10.3,9.5-12.5,14.8c-3.7,8.6-7.2,10.9-18.9,12.2c-13.5,1.5-23.5,8.5-28.8,19.9
		c-3.5,7.5-3.7,18.2-0.4,25.5c3.9,8.6,8.5,13.2,17.8,17.7c4.6,2.2,9.1,5,9.9,6.2c1.1,1.5,1.5,4.8,1.5,11.5c0,10,1.2,13.8,5.2,16.6
		c2,1.4,8,1.6,46.8,1.6s44.8-0.2,46.8-1.6c4-2.8,5.2-6.6,5.2-16.6c0-6.7,0.4-10,1.5-11.5c0.8-1.2,5.3-4,9.9-6.2
		c13.6-6.6,20-16.2,20-30.1c0-17.7-12.5-30.8-31.4-33c-12-1.4-14.8-3.3-19.4-13.2c-3.3-6.9-10.7-14-17.4-16.3
		C264.5,260.1,250.8,259.6,244.1,261.5z"/>
	<path d="M212.6,406.1c-5.5,4.3-1.7,12,7.2,14.7c5.5,1.7,66.9,1.7,72.4,0c8.9-2.7,12.7-10.4,7.2-14.7c-2.6-2-3.7-2.1-43.4-2.1
		S215.2,404.1,212.6,406.1z"/>
</g>
</svg>
