<?xml version="1.0" encoding="UTF-8"?><svg id="Capa_2" xmlns="http://www.w3.org/2000/svg" viewBox="0 0 239.67 239.08"><g id="Layer_1"><g><path d="M27.5,119.08c4.68,0,9.08-1.17,12.93-3.23l45.7,51.78,6.33-3.92c-.59-2.33-.9-4.73-.9-7.14,0-.58,.02-1.15,.05-1.71l-41.75-47.31c3.22-4.51,5.13-10.02,5.13-15.98,0-15.19-12.31-27.5-27.5-27.5S0,76.39,0,91.58s12.31,27.5,27.5,27.5Z"/><path d="M212.17,184.08c-10.93,0-20.38,6.38-24.81,15.62l-39.38-5.71c-.06-6.68-2.51-12.79-6.52-17.52-5.27,5.56-12.72,9.03-20.97,9.03-7.62,0-14.98-3.05-20.37-8.41l-3.64,2.25,.52,.59c-2.54,4.17-4.01,9.06-4.01,14.31,0,15.19,12.31,27.5,27.5,27.5,10.87,0,20.27-6.31,24.73-15.47l39.46,5.73c.23,14.99,12.44,27.07,27.49,27.07s27.5-12.31,27.5-27.5-12.31-27.5-27.5-27.5Z"/><path d="M212.17,52.17c14.38,0,26.08-11.7,26.08-26.08S226.55,0,212.17,0s-26.08,11.7-26.08,26.08c0,6.85,2.64,13.32,7.43,18.23l.83,.84-62.29,88.02-1.06-.47c-3.33-1.47-6.86-2.21-10.5-2.21-14.38,0-26.08,11.7-26.08,26.08,0,2.5,.36,4.98,1.07,7.38l.31,1.04-48.22,29.86-.79-.87c-4.93-5.4-11.95-8.49-19.25-8.49-14.38,0-26.08,11.7-26.08,26.08s11.7,26.08,26.08,26.08,26.08-11.7,26.08-26.08c0-2.42-.34-4.84-1.01-7.18l-.29-1.03,48.3-29.9,.79,.85c4.92,5.3,11.89,8.34,19.11,8.34,14.38,0,26.08-11.7,26.08-26.08,0-6.1-2.15-12.03-6.05-16.7l-.7-.84,62.76-88.68,1.01,.35c2.77,.96,5.66,1.45,8.59,1.45Z"/></g></g></svg>