<?xml version="1.0" encoding="utf-8"?>
<!-- Generator: Adobe Illustrator 27.3.1, SVG Export Plug-In . SVG Version: 6.00 Build 0)  -->
<svg version="1.1"
	 id="svg383_copia" xmlns:inkscape="http://www.inkscape.org/namespaces/inkscape" xmlns:rdf="http://www.w3.org/1999/02/22-rdf-syntax-ns#" xmlns:svg="http://www.w3.org/2000/svg" xmlns:sodipodi="http://sodipodi.sourceforge.net/DTD/sodipodi-0.dtd" xmlns:cc="http://creativecommons.org/ns#" xmlns:dc="http://purl.org/dc/elements/1.1/" inkscape:version="1.2.1 (9c6d41e410, 2022-07-14, custom)" sodipodi:docname="vaultwarden-icon.svg"
	 xmlns="http://www.w3.org/2000/svg" xmlns:xlink="http://www.w3.org/1999/xlink" x="0px" y="0px" viewBox="0 0 256 256"
	 style="enable-background:new 0 0 256 256;" xml:space="preserve">
<path d="M254.2,124.9l-10.8-6.5c-0.1-1.2-0.2-2.3-0.3-3.4l9.3-8.5c1-0.9,1.4-2.2,1.1-3.4c-0.3-1.3-1.1-2.3-2.4-2.7L239.3,96
	c-0.3-1.1-0.7-2.2-1-3.3l7.5-10.1c0.8-1,0.9-2.4,0.4-3.6c-0.5-1.2-1.6-2-2.8-2.2l-12.5-1.9c-0.5-1-1.1-2-1.6-3l5.4-11.4
	c0.5-1.2,0.4-2.5-0.3-3.6c-0.7-1.1-1.9-1.7-3.2-1.6l-12.7,0.6c-0.7-0.9-1.4-1.8-2.1-2.6l3.1-12.3c0.3-1.2-0.1-2.6-1-3.5
	c-0.9-0.9-2.2-1.3-3.5-1l-12.3,3.1c-0.9-0.7-1.7-1.4-2.6-2.1l0.6-12.7c0.1-1.3-0.6-2.5-1.6-3.2c-1.1-0.7-2.4-0.8-3.6-0.3l-11.4,5.4
	c-1-0.6-2-1.1-3-1.6l-1.9-12.5c-0.2-1.3-1-2.3-2.2-2.8s-2.5-0.3-3.6,0.4l-10.1,7.5c-1.1-0.4-2.2-0.7-3.3-1l-4.3-11.9
	c-0.4-1.2-1.5-2.1-2.7-2.4c-1.3-0.3-2.6,0.2-3.4,1.1l-8.5,9.3c-1.1-0.1-2.3-0.2-3.4-0.3l-6.5-10.8C130.5,0.7,129.3,0,128,0
	c-1.3,0-2.5,0.7-3.1,1.8l-6.5,10.8c-1.2,0.1-2.3,0.2-3.4,0.3l-8.5-9.3c-0.9-1-2.2-1.4-3.4-1.1c-1.3,0.3-2.3,1.1-2.7,2.4L96,16.7
	c-1.1,0.3-2.2,0.7-3.3,1l-10.1-7.5c-1-0.8-2.4-0.9-3.6-0.4c-1.2,0.5-2,1.6-2.2,2.8l-1.9,12.5c-1,0.5-2,1.1-3,1.6l-11.4-5.4
	c-1.2-0.6-2.5-0.4-3.6,0.3c-1.1,0.7-1.7,1.9-1.6,3.2l0.6,12.7c-0.9,0.7-1.8,1.4-2.6,2.1L41,36.5c-1.2-0.3-2.6,0.1-3.5,1
	c-0.9,0.9-1.3,2.2-1,3.5l3.1,12.3c-0.7,0.9-1.4,1.7-2.1,2.6l-12.7-0.6c-1.3-0.1-2.5,0.6-3.2,1.6s-0.8,2.4-0.3,3.6l5.4,11.4
	c-0.6,1-1.1,2-1.6,3l-12.5,1.9c-1.3,0.2-2.3,1-2.8,2.2c-0.5,1.2-0.3,2.5,0.4,3.6l7.5,10.1c-0.4,1.1-0.7,2.2-1,3.3l-11.9,4.3
	c-1.2,0.4-2.1,1.5-2.4,2.7c-0.3,1.3,0.2,2.6,1.1,3.4l9.3,8.5c-0.1,1.1-0.2,2.3-0.3,3.4l-10.8,6.5C0.7,125.5,0,126.7,0,128
	c0,1.3,0.7,2.5,1.8,3.1l10.8,6.5c0.1,1.2,0.2,2.3,0.3,3.4l-9.3,8.5c-1,0.9-1.4,2.2-1.1,3.4c0.3,1.3,1.1,2.3,2.4,2.7l11.9,4.3
	c0.3,1.1,0.7,2.2,1,3.3l-7.5,10.1c-0.8,1-0.9,2.4-0.4,3.6c0.5,1.2,1.6,2,2.8,2.2l12.5,1.9c0.5,1,1.1,2,1.6,3l-5.4,11.4
	c-0.5,1.2-0.4,2.5,0.3,3.6c0.7,1,1.8,1.6,3,1.6c0.1,0,0.1,0,0.2,0l12.7-0.6c0.7,0.9,1.4,1.8,2.2,2.6L36.5,215
	c-0.3,1.2,0.1,2.6,1,3.5c0.7,0.7,1.6,1.1,2.6,1.1c0.3,0,0.6,0,0.9-0.1l12.3-3.1c0.9,0.7,1.7,1.4,2.6,2.1l-0.6,12.7
	c-0.1,1.3,0.6,2.5,1.6,3.2c0.6,0.4,1.3,0.6,2,0.6c0.5,0,1.1-0.1,1.6-0.4l11.4-5.4c1,0.6,2,1.1,3,1.6l1.9,12.5c0.2,1.3,1,2.3,2.2,2.8
	c0.5,0.2,0.9,0.3,1.4,0.3c0.8,0,1.5-0.2,2.2-0.7l10.1-7.5c1.1,0.4,2.2,0.7,3.3,1l4.3,11.9c0.4,1.2,1.5,2.1,2.7,2.4
	c0.2,0,0.5,0.1,0.7,0.1c1,0,2-0.4,2.7-1.2l8.5-9.3c1.1,0.1,2.3,0.2,3.4,0.3l6.5,10.8c0.7,1.1,1.9,1.8,3.1,1.8c1.3,0,2.5-0.7,3.1-1.8
	l6.5-10.8c1.2-0.1,2.3-0.2,3.4-0.3l8.5,9.3c0.7,0.8,1.7,1.2,2.7,1.2c0.2,0,0.5,0,0.7-0.1c1.3-0.3,2.3-1.1,2.7-2.4l4.3-11.9
	c1.1-0.3,2.2-0.7,3.3-1l10.1,7.5c0.6,0.5,1.4,0.7,2.2,0.7c0.5,0,0.9-0.1,1.4-0.3c1.2-0.5,2-1.6,2.2-2.8l1.9-12.5c1-0.5,2-1.1,3-1.6
	l11.4,5.4c0.5,0.2,1,0.4,1.6,0.4c0.7,0,1.4-0.2,2-0.6c1.1-0.7,1.7-1.9,1.6-3.2l-0.6-12.7c0.9-0.7,1.8-1.4,2.6-2.1l12.3,3.1
	c0.3,0.1,0.6,0.1,0.9,0.1c1,0,1.9-0.4,2.6-1.1c0.9-0.9,1.3-2.2,1-3.5l-3.1-12.3c0.7-0.9,1.4-1.7,2.2-2.6l12.7,0.6c0.1,0,0.1,0,0.2,0
	c1.2,0,2.4-0.6,3-1.6c0.7-1.1,0.8-2.4,0.3-3.6l-5.4-11.4c0.6-1,1.1-2,1.6-3l12.5-1.9c1.3-0.2,2.3-1,2.8-2.2c0.5-1.2,0.3-2.5-0.4-3.6
	l-7.5-10.1c0.4-1.1,0.7-2.2,1-3.3l11.9-4.3c1.2-0.4,2.1-1.5,2.4-2.7c0.3-1.3-0.2-2.6-1.1-3.4l-9.3-8.5c0.1-1.1,0.2-2.3,0.3-3.4
	l10.8-6.5c1.1-0.7,1.8-1.9,1.8-3.1C256,126.7,255.3,125.5,254.2,124.9z M127.8,22.9c4.1,0,7.4,3.3,7.4,7.4c0,4.1-3.3,7.4-7.4,7.4
	s-7.4-3.3-7.4-7.4C120.4,26.2,123.7,22.9,127.8,22.9z M30.1,98.9c0-4.1,3.3-7.4,7.4-7.4s7.4,3.3,7.4,7.4s-3.3,7.4-7.4,7.4
	S30.1,103,30.1,98.9z M71.8,213.6c-4.1,0-7.4-3.3-7.4-7.4s3.3-7.4,7.4-7.4s7.4,3.3,7.4,7.4S75.8,213.6,71.8,213.6z M87.7,212.8
	l-2.7-16.9c-0.6-4-4.4-6.7-8.4-6.1l-16.8,2.7C43.9,175.6,34.1,153,34.1,128c0-4.1,0.3-8.1,0.8-12.1l15.3-7.8c3.6-1.8,5-6.2,3.2-9.8
	l-7.8-15.2c2.6-4.8,5.7-9.4,9.1-13.6l53.7,150.4C101.2,218.3,94.2,215.9,87.7,212.8z M134.2,159.7c-2.4,6.5-4.5,12.8-6.2,18.7
	c-1.8-6-3.9-12.4-6.2-19.2L82.1,46.1c8.8-4.9,18.4-8.5,28.6-10.4l12.1,12.1c1.4,1.4,3.3,2.1,5.2,2.1s3.7-0.7,5.2-2.1l12.1-12.1
	c10.3,1.9,20,5.5,28.8,10.5L134.2,159.7z M183.8,213.9c-4.1,0-7.4-3.3-7.4-7.4s3.3-7.4,7.4-7.4s7.4,3.3,7.4,7.4
	S187.9,213.9,183.8,213.9z M196.1,192.5l-16.8-2.7c-4-0.6-7.7,2.1-8.4,6.1l-2.7,16.9c-6.5,3.1-13.4,5.5-20.6,7l53.7-150.4
	c3.4,4.3,6.4,8.8,9.1,13.6l-7.8,15.2c-1.8,3.6-0.4,8,3.2,9.8l15.3,7.8c0.5,4,0.8,8,0.8,12.1C221.9,153,212.1,175.6,196.1,192.5z
	 M218.1,106.8c-4.1,0-7.4-3.3-7.4-7.4s3.3-7.4,7.4-7.4c4.1,0,7.4,3.3,7.4,7.4S222.1,106.8,218.1,106.8z"/>
</svg>
