<?xml version="1.0" encoding="UTF-8"?>
<svg id="a" data-name="svg841" xmlns="http://www.w3.org/2000/svg" viewBox="0 0 678.16 678.17">
  <path d="m118.68,81.41C-23.56,203.07-40.31,416.97,81.25,559.3c110.94,129.9,301.19,156.98,443.98,63.2l-78.96-92.45c-91.17,51.17-205.8,30.76-273.7-48.74-78.49-91.9-67.69-230.02,24.14-308.6.05-.05.11-.09.16-.14,91.97-78.55,230.19-67.67,308.74,24.3,0,0,0,0,0,0,67.9,79.5,70.13,195.91,5.33,277.96l78.96,92.45c114.96-126.36,117.97-318.5,7.03-448.4C475.3-23.53,261.27-40.37,118.87,81.25c0,0,0,0,0,0-.06.05-.13.11-.19.16h0Z"/>
  <circle cx="339.08" cy="339.08" r="102.99"/>
</svg>