<?xml version="1.0" encoding="UTF-8"?>
<svg id="a" data-name="svg9" xmlns="http://www.w3.org/2000/svg" viewBox="0 0 512 512">
  <defs>
    <style>
      .b {
        fill-rule: evenodd;
      }
    </style>
  </defs>
  <path class="b" d="m256,0C114.62,0,0,114.62,0,256s114.62,256,256,256,256-114.62,256-256S397.38,0,256,0Zm99.45,330.13c-22.99,0-91.12-47.95-99.03-47.95s-76.04,47.95-99.03,47.95-109.43-90.08-104.13-101.53c9.47-6.35,91.85,25.49,104.96,25.49,12.17,0,83.32-55.44,98.2-55.44s86.03,55.44,98.2,55.44c13.11,0,95.49-31.93,104.96-25.49,5.31,11.44-80.72,101.53-104.13,101.53Z"/>
</svg>